<?xml version="1.0" encoding="UTF-8"?>
<!DOCTYPE svg PUBLIC "-//W3C//DTD SVG 1.1//EN" "http://www.w3.org/Graphics/SVG/1.1/DTD/svg11.dtd">
<!-- Creator: CorelDRAW X7 -->
<svg xmlns="http://www.w3.org/2000/svg" xml:space="preserve" width="90.311mm" height="90.311mm" version="1.1" style="shape-rendering:geometricPrecision; text-rendering:geometricPrecision; image-rendering:optimizeQuality; fill-rule:evenodd; clip-rule:evenodd"
viewBox="0 0 9031 9031"
 xmlns:xlink="http://www.w3.org/1999/xlink">
 <defs>
  <style type="text/css">
   <![CDATA[
    .fil0 {fill:black}
    .fil19 {fill:#000504}
    .fil7 {fill:#001CF2}
    .fil4 {fill:#004AB4}
    .fil11 {fill:#005255}
    .fil3 {fill:#005AD6}
    .fil2 {fill:#005AD6}
    .fil5 {fill:#0066F3}
    .fil6 {fill:#0AFE5A}
    .fil8 {fill:#0AFE5A}
    .fil12 {fill:#2DFF69}
    .fil24 {fill:#2EB6B7}
    .fil25 {fill:#5DFFFF}
    .fil16 {fill:#6E0A15}
    .fil18 {fill:#A8FDFD}
    .fil27 {fill:#ACB036}
    .fil22 {fill:#B11118}
    .fil21 {fill:#CDF550}
    .fil23 {fill:#D2A227}
    .fil28 {fill:#D455A2}
    .fil26 {fill:#F1FF58}
    .fil15 {fill:#F82365}
    .fil20 {fill:#FBFBFD}
    .fil14 {fill:#FE0436}
    .fil9 {fill:red}
    .fil10 {fill:#FF2BC3}
    .fil1 {fill:#FFCF3D}
    .fil29 {fill:#FFE747}
    .fil17 {fill:#FFFF6D}
    .fil13 {fill:white}
   ]]>
  </style>
 </defs>
 <g id="Layer_x0020_1">
  <metadata id="CorelCorpID_0Corel-Layer"/>
  <rect class="fil0" width="9031" height="9031" rx="1764" ry="1764"/>
  <path class="fil1" d="M2169 4775l65 0 0 13 -65 0 0 -13zm-233 13l0 -13c85,0 126,-13 220,-13l0 13c-53,0 -91,13 -220,13zm-972 64c21,-79 146,-103 220,-103 -39,53 -153,102 -220,103zm233 -116l4 4c0,-1 -5,-3 -4,-4zm376 -26c6,-58 -7,-19 20,-45 20,-18 19,-13 45,-20 -11,42 -23,54 -65,65zm-492 -26l0 -26c83,0 80,-30 129,13 -51,4 -61,13 -129,13zm375 26c16,-24 31,-33 53,-51 38,-31 22,-35 77,-40 -20,38 -10,31 -49,55 -16,9 -63,31 -81,36zm2191 -143c14,-14 49,21 14,7 0,0 -36,15 -14,-7zm-2061 0c1,-1 4,2 4,4l0 0c0,0 -5,-2 -4,-4zm2100 -13c13,-13 49,21 14,7 0,0 -36,15 -14,-7zm-2061 0l4 4c0,0 -5,-2 -4,-4zm2099 -13c14,-13 50,21 15,7 0,0 -36,15 -15,-7zm-168 26c62,-85 265,-90 415,-90 -31,21 -43,13 -74,43 -33,31 -8,28 -56,60 -12,-31 -16,-11 -36,-38l-5 -18c0,-60 -212,36 -244,43zm428 -103l4 3c-1,0 -6,-2 -4,-3zm-1530 13c-58,32 -69,4 -77,0 6,-16 -18,-32 40,-33 47,-1 30,13 37,33zm2100 -65c29,-6 38,-15 78,39 -64,15 -133,21 -208,26 -131,7 -111,62 -168,38 9,-25 8,-25 55,-48l150 -58c20,-6 15,-9 43,-9 22,-1 0,-2 21,1 30,5 13,1 29,11zm2449 0c3,-3 55,-3 28,18 -14,10 -35,-11 -28,-18zm-518 -13l4 4c0,-1 -5,-3 -4,-4zm-2411 39c23,-31 41,-35 91,-39 -12,10 -19,18 -38,26 -25,11 -15,10 -53,13zm2113 -65c62,5 60,26 107,36 36,7 100,3 139,3l0 13c-211,0 -93,9 -246,-26l0 -26zm-1542 0l4 4c-1,-1 -6,-3 -4,-4zm2242 -13c58,1 65,5 91,39 -59,-2 -66,-5 -91,-39zm-208 65l-64 0c4,-191 157,-107 194,-52 -31,16 -88,52 -130,52zm-1995 -65c13,-14 49,20 14,7 0,0 -36,15 -14,-7zm-2385 26c54,-13 35,-25 104,-26 -103,89 -101,31 -104,26zm2436 -39l4 4c0,0 -5,-3 -4,-4zm-3706 0l4 4c-1,0 -6,-3 -4,-4zm3771 -13l4 4c0,0 -5,-3 -4,-4zm52 -13l4 4c0,0 -5,-3 -4,-4zm1413 -13l4 4c-1,0 -6,-3 -4,-4zm-1361 0c6,-6 73,7 23,7 -23,0 -43,13 -23,-7zm1503 -13l0 0zm-168 0l4 4c-1,0 -5,-3 -4,-4zm-1257 0l0 0zm1438 -13l-13 13 13 -13zm-1309 0c-14,9 0,8 -27,12 -12,2 -26,1 -38,1l0 -13 65 0zm-3110 -26c56,0 64,-6 103,13 -9,35 -17,48 -51,48 -39,0 -47,-17 -52,-61zm4367 117l0 -26c28,-8 80,-37 104,-53 34,-22 67,-78 72,-27 1,16 -16,74 -55,98 -45,28 -59,8 -121,8zm65 -104l-13 13 13 -13zm0 0l25 -15 -25 15zm-4186 -13c3,-26 69,3 12,1 -5,0 -16,28 -12,-1zm-52 0l4 4c0,0 -5,-2 -4,-4zm2916 26c13,-9 -2,-1 25,-14l66 1c-35,8 -53,12 -91,13zm-2812 -52c14,-13 49,21 14,7 0,0 -36,15 -14,-7zm39 -13l4 4c-1,0 -6,-2 -4,-4zm-480 0l-13 13 13 -13zm-570 0l4 4c0,0 -5,-2 -4,-4zm5132 -13l0 0zm-2657 117c11,-40 15,-38 51,-53l260 -77c-27,117 11,103 -311,130zm-2449 -117c14,-14 71,20 21,7 0,0 -4,-1 -5,-1 -1,-1 -39,17 -16,-6zm5106 0c20,-28 2,-17 39,-26 -20,29 -2,17 -39,26zm519 26c-117,0 -55,5 -91,-13 18,-48 77,-64 130,-64 82,0 -7,77 -39,77zm-4316 78c-26,-38 -26,-26 -26,-91 94,-21 179,-89 259,-90 -4,49 -17,56 -96,111 -37,25 -93,66 -137,70zm2657 -207c0,-33 20,-2 7,0 0,0 -7,36 -7,0zm-2359 -52l0 0zm13 -13l-13 13 13 -13zm1905 -39c0,68 -102,45 -142,26 19,-53 -4,12 13,-26l11 -28c8,-19 19,-97 83,-29 19,19 35,30 35,57zm-1905 39c22,-33 22,-41 65,-52 -22,33 -22,41 -65,52zm78 -65l-13 13 13 -13zm13 -13l-13 13 13 -13zm0 0l51 -52c-11,43 -7,42 -51,52zm51 -52l0 0zm2035 -65l0 -25 39 0c-28,41 -2,9 -39,25zm-3888 -103l4 4c0,-1 -5,-3 -4,-4zm2074 -91c37,28 24,-2 26,65 -55,-15 -38,-17 -26,-65zm-1698 26c-37,32 -46,19 -97,33 -62,16 -39,19 -123,19 38,-25 176,-52 220,-52zm3551 -26l4 4c0,0 -5,-3 -4,-4zm-1698 -39c0,-75 156,-65 156,39 0,43 -88,87 -130,91 -1,-68 -26,-77 -26,-130zm-1594 609c-16,-39 -3,-21 26,-64 -25,-94 -53,-90 81,-167 61,-35 231,-19 333,-249 21,-46 81,-82 133,-100 16,-6 46,-12 62,-16l0 26c93,-8 45,-34 117,-38 88,-5 -5,42 258,-15 61,-13 124,-34 188,-45 40,-7 66,-3 105,-12 65,-16 6,-25 84,-7 -69,145 -177,167 -226,280 -23,53 5,21 -35,68 -80,93 -214,55 -306,-1 -95,-57 -299,31 -389,85 -40,24 -30,10 -55,48 17,63 22,15 39,78 -70,47 -89,21 -245,19 -174,-2 -92,82 -170,110zm454 -687l0 -25c46,-11 42,-13 103,-13l0 25c-49,5 -41,13 -103,13zm1270 -51c14,-14 49,20 14,6 0,0 -36,15 -14,-6zm1387 -13l4 4c-1,-1 -6,-3 -4,-4zm-2489 -117c-22,0 -48,-17 -65,-26 47,-69 104,-49 199,-62 166,-22 134,198 364,159 98,-16 516,-82 591,20 -13,48 -21,43 -77,53 -107,19 -108,1 -196,-40 -111,-52 -29,-39 -142,-39 -178,0 -326,89 -518,90 -89,1 -253,60 -181,-49 68,-104 95,-64 220,-93 -11,-129 -139,-13 -195,-13zm247 -311c-19,68 -46,27 -40,98 4,38 -111,-3 -129,-7l0 -26c78,-2 121,-33 169,-65zm0 0l0 0zm2449 -78c0,-33 21,-2 8,0 0,0 -8,36 -8,0zm220 285l-26 0c-32,-140 -51,8 -51,-311 0,-36 5,-24 26,-39 0,2 1,3 1,6l10 60c6,76 -16,85 8,135 27,54 32,51 32,149zm-155 -492l4 4c-1,-1 -5,-3 -4,-4zm104 -26l3 4c0,0 -5,-3 -3,-4zm272 -648c6,-77 29,-34 54,-102 27,-74 -19,-73 49,-118 25,100 8,161 -103,220zm-169 -350c-27,0 -3,1 -4,-16 -1,-25 -25,-14 1,-12 4,1 42,27 3,28zm-313 -6c-49,20 -46,18 -127,20 -48,2 -99,7 -130,25 9,16 8,13 13,35 99,-26 33,-45 158,-33 101,10 160,-8 239,-12 -38,17 -68,28 -93,55 52,-10 78,-27 124,-30 13,-19 -22,-15 26,-15l-18 26c51,155 69,138 170,220 -41,42 -103,58 -178,156 -67,87 -47,134 -166,169 -318,94 -135,101 -312,286 -33,36 -24,11 -37,63 13,19 14,13 -10,13 -9,32 -11,36 -14,78 3,1 8,-1 10,2 3,8 40,12 58,32 -41,-2 -42,-8 -78,-15l-1 46c33,14 26,1 31,40 9,70 -12,43 -17,50l0 13c22,0 21,-5 9,13 2,98 -47,180 -107,246 207,68 71,147 43,174 -45,45 -90,85 -123,140 -24,41 -24,0 -14,71 0,5 13,72 14,81 17,83 1,-1 27,66l-103 109c-1,1 -5,5 -7,7 18,35 26,41 49,78 8,15 16,3 14,51l-4 20c-4,47 22,47 27,113 -147,1 -121,-64 -220,-121l-210 -125c-19,15 -1,2 -18,18 -64,59 -64,22 -84,68 73,35 126,5 170,80 -14,14 -3,6 -23,19 -14,8 -19,9 -35,18 -7,3 -25,13 -26,13 -99,49 -114,1 -187,-10l63 51c-53,65 -179,78 -236,100 -123,16 -154,65 -275,19 -55,-20 -13,-2 -50,-28 -94,-68 -73,12 -206,12 1,-39 6,-47 13,-77 -40,16 -3,5 -65,0 2,-73 23,-99 52,-143l-65 0 54 -82c16,-23 -58,-6 66,-19 73,-9 44,-16 152,-16l0 -13c-42,0 -62,-4 -96,-7 -51,-5 -43,6 -98,7 36,-153 49,-111 181,-90 75,12 111,-6 117,64 42,-11 56,-32 78,-64 -54,-50 -8,-166 72,-175 -12,-69 -11,-71 5,-100l-7 -85 5 52c-65,-52 -32,-93 -109,-164 -54,-48 -136,-26 -226,-38 -88,34 -282,77 -362,30 -67,-39 -11,-39 -129,-92 -83,-37 -15,-50 -82,-86 -3,-2 -35,-10 -49,-16 -10,-46 -13,-43 -13,-104 -82,2 -139,69 -237,31 -89,-35 -15,-65 -138,-148 10,-43 25,-42 16,-70 -17,-53 -26,-10 -55,-60 -29,-52 8,-44 -32,-84 -39,-39 -24,10 -63,-54 -44,-75 -27,-34 -56,-61l-12 -13c-37,-48 27,37 -9,-17 -19,-28 24,3 -31,-34 -24,-17 -133,-67 -160,-73 10,19 6,14 13,39 -29,-20 -16,-2 -26,-39l-13 0c-28,103 -127,45 -207,39 17,23 7,13 30,34 48,43 103,40 159,12 51,-26 -7,-52 186,-7 0,30 0,51 4,80 4,28 -3,16 21,50 16,22 5,3 17,22 38,61 3,43 75,81 -15,30 -17,90 -26,129 101,49 68,2 156,0l-91 78c56,13 69,39 117,52 -30,62 -7,134 -86,48 -34,-37 -42,-34 -83,-61 -90,134 13,37 13,246 38,20 108,71 130,104 -37,38 -100,93 -146,126 -80,58 -72,17 -169,117 -70,73 -75,66 -193,79 -99,10 -160,15 -270,15 47,-41 59,-17 79,-77 30,-86 -40,-111 50,-234 15,-21 60,-77 78,-91 -23,-88 -22,-2 -13,-116 -56,1 -81,13 -155,13l-73 -135c-25,-61 23,-25 -31,-47l0 -52c63,-22 19,-18 32,-73 10,-47 12,-16 25,-51 1,-3 3,-7 3,-10 6,-19 5,-13 5,-34 -91,-48 -114,-7 -143,-130l-25 0c0,66 7,81 -57,138l-21 18c57,1 40,8 90,13 -2,96 -11,127 -77,142 31,43 188,64 151,189l-151 200c55,5 23,-2 65,26 -20,85 -75,118 -95,202 -10,42 2,23 4,83 -48,25 -90,44 -143,65 -25,10 -46,18 -76,27 -52,15 -52,0 -79,38 61,16 61,41 42,107 -18,65 -16,5 -3,61 7,32 20,14 -1,63l-69 114c-17,35 -43,97 -42,132 3,159 2,120 28,241 8,35 4,50 7,84 7,74 36,86 -16,142 -33,35 -61,51 -89,93 23,98 64,117 238,43 128,-55 67,-108 207,-169 2,-1 6,-2 9,-4 -65,0 -58,-12 -117,-13 15,-55 21,-36 62,-68 42,-33 36,-33 46,-96 17,-115 32,-105 87,-186l-78 -39c8,-115 33,-86 74,-131 85,-92 96,-72 146,-115 -65,5 -129,57 -193,79 -94,34 -119,29 -183,102 11,46 30,71 52,104 -3,5 -135,229 -194,130 -10,-21 -10,9 -1,-19 4,-15 6,-14 11,-21 16,-25 20,-14 34,-48 32,-78 -15,-66 -44,-107 48,-208 217,-124 259,-181 -117,0 -190,36 -195,-51l3 -106c6,-47 32,-49 88,-51l28 51c77,136 342,-1 440,4l29 6c2,1 6,2 9,4 -89,21 -188,28 -234,91l130 -13c21,-19 122,-86 155,-39 -26,6 -31,8 -60,17l-56 22c42,0 104,-9 134,11 39,25 21,19 -18,93 50,33 50,37 65,78l13 38c33,31 24,17 13,65 76,2 99,32 130,78 -35,3 -35,6 -65,13 -68,-102 -56,-31 -78,-91l-26 0c-19,74 -86,93 -144,167 -77,97 -44,45 -89,83 -60,52 -121,116 -220,139 25,54 -7,59 65,65 -13,48 -14,16 -26,65l51 9c94,-73 92,-94 260,-85 19,-14 -6,-7 27,-14 11,-2 26,-1 37,-1l0 28c37,3 15,-4 22,18 81,-1 129,50 244,41 56,-4 254,-18 274,-7 23,15 11,-7 27,19 17,-23 11,-19 38,-38 6,-4 22,-13 24,-14 32,-22 -31,26 15,-11l14 -12c26,-22 -30,-21 67,-25 26,-1 64,2 92,2 -25,-17 -113,-25 -143,-27 -9,-117 -104,-247 93,-118 56,37 93,17 175,-12 -10,-55 -12,-94 -60,-123 -32,30 8,15 -52,20 0,-69 0,-20 -13,-39 9,-35 -6,-16 26,-23 114,-41 341,-143 447,-131 88,10 137,63 204,89 80,31 150,19 184,96 -29,42 -98,58 -22,83 26,8 10,-15 107,33l13 -5 -4 13 38 44c2,2 5,5 7,7 12,11 12,10 24,20 45,-9 83,-18 130,-20 87,-3 66,4 129,27l4 -22c26,-30 86,-37 126,-33 139,16 30,-16 77,42 -14,6 -47,19 -57,25 -54,31 -24,-7 -33,40 -39,-7 4,-2 18,24 -29,-48 18,-34 62,-62 47,-30 34,-48 65,-76 55,-48 171,-28 261,-42 89,-13 408,-53 481,-95l-72 -21c59,-41 32,-47 131,-46 67,0 123,7 171,11 47,4 151,-15 163,31 99,8 127,-44 223,-49 134,-7 124,28 192,81 65,51 129,37 236,36 58,0 231,13 251,7 171,-50 130,7 236,-11 100,-17 108,-45 216,-38 76,5 127,-36 241,-21 76,10 139,51 235,51 4,-14 166,-243 70,-421 -31,-59 -54,-53 -131,-64 -80,-11 -67,-2 -137,27 -52,22 -101,24 -150,45 -89,37 -112,130 -235,140 0,-13 -2,-38 2,-50 15,-59 34,-13 62,-93 37,-110 27,-26 78,-138l-90 4c-15,17 -4,7 -21,22 -39,33 -70,35 -90,54 -37,34 -21,78 -97,98l-38 -48c-14,19 -7,4 -15,36 -15,62 17,126 -193,131l39 12 0 24c-65,0 -75,0 -104,-39 -44,0 -15,6 -26,-19 -18,-7 -43,-17 -60,-24 -64,-26 -32,-16 -66,-36 -61,-37 -99,-25 -171,-17 -38,-1 -48,9 -93,11l-76 -13 6 -31c0,-2 1,-6 1,-7 0,-2 1,-6 1,-8 -6,-41 -41,-36 -52,-85 -14,-56 33,-47 27,-103 0,-7 -10,-20 -16,-44l-21 -24c77,-21 73,-20 102,-71 1,-1 2,-6 4,-8l-131 -183c64,-14 74,-38 144,-44 79,-7 107,-8 168,-44 9,-67 -8,-86 -55,-115 -69,-40 -180,-39 -206,-131 -16,-59 11,-93 38,-120 117,-118 -3,-91 94,-219 102,-136 66,-165 138,-212 -19,-19 -4,-7 -28,-24l-110 -57 -208 -95c-23,-10 -20,19 -17,-26 -13,-12 -11,-4 4,-13 23,-34 7,-27 52,-39 10,-16 2,-18 13,-3l199 -213c37,-37 46,-31 82,-56 10,-89 30,-122 30,-208l-31 73c-14,26 -26,42 -47,57l2 -104c-3,-67 -2,-77 -15,-129 62,14 73,1 78,64 38,-27 25,2 26,-64 -33,-1 -50,-3 -69,-9 -51,-16 -23,7 -48,-35 -196,63 -152,24 -272,50 39,-98 5,-100 75,-111 116,-17 -9,24 107,-38 -92,-59 -40,-53 -168,-40 -68,7 -53,15 -93,61l-26 30c-99,-9 -25,-8 -64,-19 -64,-18 -104,24 -144,-12z"/>
  <path class="fil1" d="M4295 7600l4 4c-1,0 -6,-3 -4,-4zm-402 39c13,-36 -1,-27 52,-39 -30,41 -9,13 -52,39zm143 -65l3 4c0,0 -5,-3 -3,-4zm51 -13c6,-6 74,7 24,7 -23,0 -43,13 -24,-7zm-375 -65c0,-33 20,-2 7,0 0,0 -7,36 -7,0zm829 -168c1,-6 59,-23 17,1 -22,13 -19,18 -17,-1zm-922 20c39,9 98,29 97,58 -1,41 -75,26 -121,26 -13,-54 -35,-79 -39,-130 41,-22 108,-57 130,26l-67 20zm948 -59l4 4c0,0 -5,-3 -4,-4zm-389 -65c13,-35 -1,-27 52,-39 -30,42 -9,13 -52,39zm-531 -65l39 0 0 26c-38,-9 -19,2 -39,-26zm622 27c13,-37 12,-35 65,-40l-65 40zm-376 -208c68,0 17,-5 52,13 -3,25 17,43 -78,65 -8,-34 -31,-78 26,-78zm-233 26c6,-6 73,7 23,7l-7 -2c-2,0 -39,17 -16,-5zm-52 -65c79,-18 185,-69 194,39 -191,0 -147,51 -194,-39zm272 -13c0,-35 46,0 12,1 -13,0 -12,29 -12,-1zm700 -26l26 0 0 39c-50,-35 -6,0 -26,-39zm-454 13c19,-70 75,-46 91,13 -75,18 -61,28 -91,-13zm337 -52c0,-35 47,0 12,1 -13,0 -12,29 -12,-1zm-855 15c26,-51 18,-61 65,-93 27,42 21,10 26,65l-91 28zm181 -54c3,-2 55,-2 27,18 -13,11 -34,-10 -27,-18zm376 13c-122,0 -70,4 -104,-13 16,-57 63,-53 121,-61 132,-19 159,-36 191,10 -16,58 -14,32 -85,45 -53,9 -63,19 -123,19zm-350 -103l39 0c-1,51 4,30 -13,64l-51 -14 -1 -37 26 -13zm39 -26c0,-35 46,0 12,0 -13,1 -12,29 -12,0zm648 -65c54,4 95,37 67,66 -10,10 -25,9 -45,-8 -30,-25 -20,11 -22,-58zm-570 -337l0 26 -39 0c20,-30 2,-15 39,-26zm91 -26c37,9 18,-2 38,26l-38 0 0 -26zm-117 -78c16,18 14,17 26,39 -34,-13 -19,0 -26,-39zm441 -26c35,26 48,33 -13,39 9,-16 13,-14 13,-39zm-661 -311c-22,5 -22,-24 1,-27 2,0 13,25 -1,27zm26 -64c5,-61 -14,-23 25,-52 -5,68 -23,47 -25,52zm-339 -156c81,-14 75,36 150,65 -31,103 22,188 31,272l25 -29c33,-28 -2,-11 42,-23 -18,27 -25,54 -61,65 27,35 60,136 39,186 -42,49 -152,51 -232,52l38 223c46,1 95,7 137,2 59,-8 54,-31 111,-16l1 37c-13,74 -30,60 -52,81 -22,22 -24,-5 -20,49 2,31 6,55 6,92l-196 84c0,52 10,68 13,117 2,35 -4,98 -4,119l58 428c4,61 -18,27 23,84 29,42 21,32 27,100 -140,-51 -80,-141 -251,-236 -4,0 -31,-7 -33,-7l-18 -1c-36,3 -23,31 -157,-6l-20 -7c-64,-22 20,-12 -57,-20 1,64 1,43 34,82 45,56 172,145 147,229 -8,27 -30,8 -55,74 -13,33 -23,69 -23,120l166 146c2,2 4,5 6,7l32 46c76,136 225,151 250,242 -94,8 -64,118 77,157 71,19 51,11 65,50 14,-18 14,28 14,-39 -55,-14 -80,-53 -96,-112 -18,-66 -4,-38 -32,-71 -27,-33 2,33 -22,-30 -9,-23 -6,-33 -6,-59 53,0 56,-10 87,17 6,6 18,26 20,32 13,31 9,13 10,55 19,-13 78,-60 90,-78 -17,-73 -93,-178 -81,-239 30,-155 -6,-17 -61,-253 84,0 116,-14 207,-14 116,1 354,39 437,-3 38,-18 33,-26 74,-43 36,-15 56,-13 90,-31 18,-46 40,-12 83,-83 38,-63 81,-139 156,-164 72,-24 98,-27 105,-98 12,-129 63,-51 118,-122 18,-22 25,-52 31,-82 -101,-50 -104,-139 -247,-146l65 -1 -3 -43c-18,14 -14,-21 -14,26 -82,-2 -41,-11 -98,-45 -54,-31 -47,-3 -84,-59 19,-83 29,-19 81,-100 42,-66 64,-25 126,-55 -39,-74 -3,-22 -41,-30 -44,-10 -43,8 -49,-48 36,-17 17,-12 70,-13 -29,-20 40,-20 -44,-16 -3,-38 14,-1 -7,-55 -50,-11 -91,-25 -139,-46 -59,-25 -46,-35 -54,-55l-14 -28c-21,44 -10,26 -42,61 -82,91 -28,71 -178,131 -73,30 -63,41 -143,25 -89,-17 -159,-36 -197,14 -44,58 2,50 -43,67l-26 58c-41,3 -104,17 -142,26 0,-89 18,-103 64,-143 -35,-12 -27,21 -15,-28 8,-34 7,-21 28,-37 10,18 7,15 13,39 42,-28 9,-21 66,-26l-59 -20c72,-1 11,4 37,-19l-57 0c36,-53 17,-51 52,-77 24,35 16,11 26,55 25,-23 13,25 20,-23 2,46 -3,6 19,23 3,-40 0,-29 13,-55 62,1 51,-14 65,40 13,-11 8,-2 26,-22 -25,-112 -19,25 -68,-56 -26,-44 11,-42 35,-24l14 14c1,2 4,6 6,9 3,-131 120,-86 207,-65 -28,-42 -21,-9 -26,-65 38,-26 49,-39 117,-40 73,-2 82,4 116,40 4,-66 25,-30 -19,-49l71 14 13 -23 0 -20c-32,-18 -37,-17 -14,-52 -20,-33 -35,-61 -61,-92 -173,-208 -100,-243 -195,-251 -42,-4 -177,36 -173,-108 2,-48 17,-67 32,-107 36,-98 -41,-38 -70,-86 -21,-35 22,-22 -10,-81 -70,-133 -240,29 -272,52 -62,44 -95,28 -215,81 -100,45 -131,23 -181,38 -59,18 -19,-2 -52,29 24,0 64,-3 85,-1 76,5 35,-6 62,21z"/>
  <path class="fil2" d="M4528 6317l52 0 0 26c-60,-5 -23,14 -52,-26zm-441 -726c12,44 34,62 60,96 16,21 67,86 18,86 -117,0 -172,-118 -78,-182zm286 -415c69,-16 66,-39 127,2l211 152c76,59 179,242 215,329 36,86 48,213 82,282 -112,75 -92,33 -173,-35 -214,-181 -146,-194 -343,-499 -48,-73 -79,-154 -119,-231zm-830 -402c22,-11 34,-10 53,-24 39,-31 9,-21 41,-50 77,-67 275,18 357,117 96,115 73,67 101,158 6,21 17,46 27,63 46,77 108,109 156,207 29,59 37,55 69,99 55,75 208,415 319,576 51,74 99,75 135,228 -75,116 -179,115 -225,56 -37,-47 -26,-125 -126,-224 -84,-84 -41,-12 -123,-136 -165,-248 -82,-178 -145,-296 -67,-124 -271,-253 -333,-367 -111,-208 -169,-38 -273,-258 -31,-67 -9,-95 -33,-149zm-920 -372l39 42c48,29 50,68 60,123 -3,43 -4,27 19,63 13,21 25,36 37,56 43,12 2,1 27,13 3,1 15,7 19,8l18 7c42,18 19,-2 55,35 60,29 92,20 167,20 68,79 66,100 176,155 149,76 156,-13 349,154 82,71 179,136 217,201l15 41c5,40 -72,19 -86,19 -45,-1 -29,12 -96,28 -27,6 -18,-23 -30,11 -8,24 5,6 26,31 1,0 4,3 4,6l-87 44c-111,75 14,30 -196,65 -156,26 -108,-1 -111,-34 -20,14 -9,2 -26,22 -42,47 -37,75 -26,118 53,19 111,13 180,13 -27,-27 14,-16 -62,-21 -21,-2 -61,1 -85,1 33,-31 -7,-11 52,-29 50,-15 81,7 181,-38 120,-53 153,-37 215,-81 32,-23 202,-185 272,-52 32,59 -11,46 10,81 29,48 106,-12 70,86 -15,40 -30,59 -32,107 -4,144 131,104 173,108 95,8 22,43 195,251 26,31 41,59 61,92 7,9 18,5 19,38 0,1 -2,6 -2,7 0,1 -1,5 -3,7l0 20 28 30 -41 -7 -71 -14c44,19 23,-17 19,49 14,55 -2,102 -44,150 -34,40 -106,44 -176,44l-2 14c0,1 -1,5 -2,6 0,0 0,27 -35,28 -15,1 -57,-32 -142,-55 -18,20 -13,11 -26,22 -39,30 -32,30 -78,15 -22,-17 -17,23 -19,-23 -7,48 5,0 -20,23 -22,8 -15,3 -21,22 -26,23 35,18 -37,19l59 20c1,3 3,4 3,8 1,22 18,10 -17,83 27,48 1,10 26,20 45,-17 -1,-9 43,-67 38,-50 108,-31 197,-14 80,16 70,5 143,-25 150,-60 96,-40 178,-131 32,-35 21,-17 42,-61l14 28c8,20 -5,30 54,55 48,21 89,35 139,46 21,54 4,17 7,55 84,-4 15,-4 44,16l-7 39c79,-56 -30,-83 173,-139 137,-38 41,-129 192,-94l-40 -66c69,-48 127,-91 244,-48l89 66c50,47 32,67 15,122 -41,133 48,-4 -70,256 -59,131 168,193 -14,310 -20,13 -31,22 -43,30l-38 18c10,4 16,3 26,10 49,34 -37,17 25,42l132 -90c50,-31 89,-65 153,-80 0,-80 -20,-117 4,-163 49,-93 58,-226 29,-323 -10,-31 -20,-37 -28,-65 -11,-42 -1,-60 -1,-82l-27 -355c-32,-102 -118,-154 -236,-127 -26,-111 -40,-171 -80,-270 -34,-83 -51,-173 -93,-257 -42,-85 -80,-143 -130,-219 -26,-38 -49,-72 -77,-105 -32,-38 -60,-55 -87,-95 16,-3 33,-6 43,-9 76,-24 8,-14 98,-81 3,-3 9,-8 10,-5 2,3 8,-4 11,-5l67 -11c-66,0 -284,19 -268,-51l45 -66c70,-57 62,-29 105,-24 50,-81 73,-76 195,-77 10,-20 17,-45 27,-67 -24,-13 -88,-27 -79,-56 10,-36 0,-17 54,-21 20,-2 59,1 81,1 9,13 8,7 17,29 1,3 4,19 5,23 2,-46 -2,-4 15,-22 15,-15 -26,-16 38,-15 -12,-46 -116,-27 -163,-31 -48,-4 -104,-11 -171,-11 54,34 -7,-14 74,25 4,2 8,5 11,6 3,2 7,4 10,7 -106,100 -60,58 -90,140 -23,64 10,34 -77,46 -121,18 -106,42 -121,118 -17,87 -50,150 34,248 24,13 29,9 45,39 30,59 -29,43 -11,111 23,88 134,-6 176,84 15,31 27,89 42,127 28,75 62,144 95,229l59 278 -66 26 -10 0 -55 1c-2,-194 19,-110 -45,-267 -135,-333 -44,-151 -263,-358 -91,-86 -96,-73 -172,-140 21,-80 14,-18 48,-65 -52,-25 -71,37 -80,84l-154 -1 34 -93c22,-34 29,-20 45,-50 -175,0 -107,-50 -251,-97 -118,-40 -66,-18 -206,-156 -14,-26 -57,-31 -18,-24 9,-47 -21,-9 33,-40 10,-6 43,-19 57,-25 -47,-58 62,-26 -77,-42 -40,-4 -100,3 -126,33l-4 22c-63,-23 -42,-30 -129,-27 -47,2 -85,11 -130,20 -12,-10 -12,-9 -24,-20 -2,-2 -5,-5 -7,-7l-38 -44 -9 -8c-97,-48 -81,-25 -107,-33 -76,-25 -7,-41 22,-83 -34,-77 -104,-65 -184,-96 -67,-26 -116,-79 -204,-89 -106,-12 -333,90 -447,131z"/>
  <path class="fil2" d="M6200 4178l4 4c0,0 -5,-2 -4,-4zm-26 -13l4 4c0,0 -5,-2 -4,-4zm26 -1503c97,0 194,51 285,39 78,-10 -12,-65 194,-65 41,0 99,18 112,57 8,22 5,36 5,60 5,84 28,-9 67,129 13,48 -5,90 -62,109 -77,27 -253,-18 -381,-18 -95,1 -243,80 -329,112 -212,78 -154,91 -254,186 -128,-66 -48,-157 -65,-194 -14,-31 -59,-47 -49,-101 9,-44 55,-50 86,-84 57,-64 -29,-147 108,-189 52,-16 219,-41 283,-41zm752 -399l15 35 -28 21c-35,26 -7,62 -78,55 -47,-5 -52,-18 -52,-75 -29,17 13,-25 -12,17l-40 74c-276,-23 -281,-85 -585,24 -153,55 1,23 -260,90 -91,23 -181,49 -243,98l110 57c24,17 9,5 28,24 -72,47 -36,76 -138,212 -97,128 23,101 -94,219 -27,27 -54,61 -38,120 26,92 137,91 206,131 47,29 64,48 55,115 -61,36 -89,37 -168,44 -70,6 -80,30 -144,44l131 183c11,23 10,17 13,52 -32,17 -69,30 -98,51 6,24 16,37 16,44 6,56 -41,47 -27,103 11,49 46,44 52,85 0,2 -1,6 -1,8 0,1 -1,5 -1,7l-6 31 76 13c-10,-24 -6,-15 -11,-44 85,-1 86,5 116,-52 -84,-57 -94,-2 -194,-26 31,-120 148,-24 259,-233 -150,-4 -212,-99 -104,-156 -20,-14 19,0 -34,-17 -29,-10 -7,-6 -43,-9 10,-44 24,-46 79,-51 64,-6 79,8 128,12 33,-31 65,-79 91,-116 127,3 85,84 440,-1 -18,-225 -276,-6 -376,-207 119,-83 152,-79 338,-77 84,0 126,-17 194,-14 63,2 131,25 194,26 -40,85 -5,186 -51,234 -56,59 -153,55 -192,93 -49,49 -1,64 -69,178 -42,72 -76,164 -76,260l-173 100c-97,50 -92,35 -137,136 -56,-14 -75,-39 -129,-56 -20,-7 -47,-13 -80,-13 -66,0 -64,7 -77,22 72,-8 110,-20 171,17 34,20 2,10 66,36 17,7 42,17 60,24l26 19 65 3c210,-5 178,-69 193,-131 8,-32 1,-17 15,-36l9 -4c19,-71 133,-126 170,-236 23,-68 91,-233 161,-252 125,-34 129,-20 178,-99 0,-26 -8,-22 13,-22 4,-53 -9,-34 36,-55l210 -75c35,-16 98,-41 124,-70 56,-62 10,-62 105,-98 -19,-48 -9,-30 -45,-65 177,-213 33,-88 87,-222 22,-55 13,-52 2,-108 -1,-12 -1,-40 -3,-48 -20,-73 -50,-62 -101,-63 -32,-83 75,-46 -30,-117 -38,53 -31,26 -113,26 36,-53 15,-10 13,-90 30,-7 30,-10 65,-13 -3,-2 -7,-7 -9,-5l-25 -14c-44,-32 -44,-66 -44,-137l-78 -39 -62 26 -15 -52c-13,25 -18,20 -26,29z"/>
  <path class="fil3" d="M1456 4823c-70,26 -25,0 -26,29l0 52c-52,1 -61,4 -77,39 36,51 15,98 25,206 17,194 -68,150 6,313 97,212 33,37 77,255 23,112 57,91 83,164 107,290 31,296 62,374 23,61 108,118 35,169 -17,5 0,7 -22,-2 -66,-28 41,33 -13,-8 -32,-25 -5,-20 -41,-41 -23,-13 -1,-7 -15,-4 -36,73 31,123 54,151l78 177c10,70 -28,-16 0,51 -56,-11 -23,-8 -64,-25 -7,94 38,218 77,277 93,140 198,296 274,449 19,38 37,80 83,95 79,27 34,18 84,76 46,54 93,41 116,114 60,194 167,187 225,221l111 69c206,155 66,138 360,191 55,-25 54,-76 127,-111 107,-50 30,-32 158,-88l-139 -110c-60,-64 -13,-127 -4,-203 -75,-18 -163,-62 -224,-100 -142,-89 -146,-144 -172,-169 -6,34 -14,13 7,23 -8,-68 -41,-201 -78,-271 -29,-56 -14,-47 -73,-59 -51,88 -40,74 4,177 60,142 -27,97 -96,90 7,15 15,43 21,66 14,52 12,11 2,61 -8,43 -2,-8 -6,31 -2,19 7,36 -19,75 -71,-13 -168,-152 -216,-215l-91 -156c-53,-95 -53,-148 -90,-218 -12,-22 -21,-41 -32,-61 -12,-19 -2,-1 -16,-23 -1,-3 -3,-6 -5,-8 -1,-3 -3,-6 -4,-8 -22,-38 -45,-66 -55,-116l68 -14c15,44 -2,6 24,41 22,28 91,118 54,26l-177 -290c-75,-109 -53,-145 -26,-260 8,-32 -15,-79 -14,-112l21 -61c54,18 14,-6 51,44 56,77 2,116 76,189 36,36 29,-1 32,38l36 87c16,32 30,66 53,91 99,102 74,39 62,-51l49 -13c2,-60 23,-87 49,-129 -27,-51 -67,-158 -123,-169 0,-87 -23,-152 -46,-222 -28,-80 -120,-108 -96,-1 -43,-28 -35,-20 -31,-86 -64,27 0,-18 -30,27 -14,21 -6,29 9,36 -5,0 -22,0 -36,-1 -2,-1 -9,2 -11,-2 -2,-5 -8,-2 -11,-3 -17,-44 -7,-72 -59,-63 -58,10 -30,41 -26,82 -74,-15 -31,-3 -64,-40 -39,-44 -73,-96 -140,-106l18 -18c4,-4 6,-6 10,-9l47 -34c-30,2 -74,51 -36,-45 28,-73 106,-71 179,-73 103,-2 65,-24 114,27 52,53 86,33 131,39 0,-215 -9,-114 -20,-198 -1,-5 -4,-6 -6,-10l-25 -4c-105,-15 -331,51 -403,-9 -18,-14 -26,-43 -58,-70 -70,-58 -152,-96 -179,-189 26,-46 50,-81 93,-104 -20,-80 -101,-231 -23,-311 122,-126 146,-65 319,-83 -7,-22 15,-15 -22,-18 -36,-21 -10,-16 -64,-13 -168,-9 -166,12 -260,85z"/>
  <path class="fil4" d="M2273 8365l4 4c0,-1 -5,-3 -4,-4zm-324 -622l0 0zm0 0c-62,-17 -91,-62 -91,-143l91 143zm-104 -169l0 0zm0 0c-19,-23 -17,-16 -26,-52 20,-9 30,-29 40,1 11,31 -6,-16 -14,51zm1037 881c-36,-51 -58,-66 -90,-116l129 40c-29,-57 -39,-59 -39,-145l66 -19c-294,-53 -154,-36 -360,-191l-111 -69c-58,-34 -165,-27 -225,-221 -23,-73 -70,-60 -116,-114 -50,-58 -5,-49 -84,-76 -46,-15 -64,-57 -83,-95 -76,-153 -181,-309 -274,-449 -39,-59 -84,-183 -77,-277 41,17 8,14 64,25 -28,-67 10,19 0,-51l-78 -177c-23,-28 -90,-78 -54,-151 14,-3 -8,-9 15,4 36,21 9,16 41,41 54,41 -53,-20 13,8 22,9 5,7 22,2 73,-51 -12,-108 -35,-169 -31,-78 45,-84 -62,-374 -26,-73 -60,-52 -83,-164 -44,-218 20,-43 -77,-255 -74,-163 11,-119 -6,-313 -10,-108 11,-155 -25,-206 16,-35 25,-38 77,-39l0 -52 -77 15c-55,101 -69,361 -45,522l-1 261c-8,31 -10,20 -12,45 -1,18 7,26 6,64 -2,63 -26,65 -52,104 132,88 108,129 74,295 -21,102 6,107 9,170 2,64 -29,138 -27,182 1,18 18,64 21,78 10,49 -12,5 -2,57 11,59 52,88 39,174 -8,53 -40,101 -16,177 9,29 31,24 16,81 -8,32 -28,38 -49,69 308,72 126,250 257,430 121,167 44,201 163,381 154,233 21,39 21,278 51,4 89,41 125,68 74,56 322,209 395,217 122,14 46,-60 267,-134 62,-21 118,25 248,44 45,6 54,13 92,25z"/>
  <path class="fil1" d="M7690 3012l0 0zm0 0l-13 -13 13 13zm-13 -13l0 0zm26 -868l4 4c0,-1 -5,-3 -4,-4zm91 -259l4 3c0,0 -5,-2 -4,-3zm311 -299c0,-61 143,-121 143,78 0,57 -68,131 -107,166 -100,88 -44,23 -54,69 -6,27 9,30 -60,76 0,-210 67,-168 96,-295 17,-80 -18,-41 -18,-94zm-13 -233l4 4c0,0 -5,-3 -4,-4zm52 -168l4 4c0,-1 -5,-3 -4,-4zm-608 1218c-9,46 -111,210 -27,206 47,3 72,12 104,27 -35,52 -31,63 -118,65l-115 72c11,56 20,53 -2,108 -54,134 90,9 -87,222 36,35 26,17 45,65 -16,61 -25,93 -58,132 -26,30 -82,52 -127,67 -67,23 -237,94 -290,99l-13 22c-49,79 -53,65 -178,99 -70,19 -138,184 -161,252 -37,110 -151,165 -170,236 23,-21 68,-53 97,-75 59,-43 56,-33 140,-47l90 -4c99,-18 207,-17 325,-17 112,1 226,-7 311,-52 0,-119 1,-112 67,-166 64,-52 8,-69 101,-132 73,-50 109,-83 152,-197l42 -75c-80,-9 -51,-76 -51,-181 37,-9 85,-33 109,-59 22,-24 43,-78 54,-115 38,-138 22,-92 95,-164 75,-74 -24,-83 91,-168 40,-29 62,-42 75,-93 18,-68 2,-74 51,-118 20,-18 33,-25 56,-35l65 -26c-69,0 -77,-1 -130,-13 0,-121 19,-22 65,-168 86,-269 192,-304 195,-376 1,-53 -32,-84 -39,-132 -9,-68 20,-89 16,-124 -5,-53 -9,-3 -15,-56 -4,-39 4,-47 11,-77 -30,16 -52,30 -90,39 19,-41 8,-62 30,-112 27,-63 27,-45 15,-127 -33,-218 -1,-94 -123,-176 0,78 -3,58 -33,109 -57,97 18,36 -115,248 -101,161 -18,193 -103,261 -38,30 -52,19 -77,65 -37,70 2,42 -74,82 36,75 -25,265 -52,337 -50,137 -74,115 -111,200 -21,49 -5,43 -43,72z"/>
  <path class="fil5" d="M2506 6978l4 4c0,0 -5,-3 -4,-4zm-78 -233l4 3c0,0 -5,-2 -4,-3zm266 689c19,-278 -199,-369 -151,-484 71,-170 4,45 -115,-466 -48,-209 -73,-127 -144,-297 32,-8 5,22 45,-13 -5,-24 -20,-29 -31,-49l-22 -70c-24,-50 -51,-92 -70,-138 -28,-65 -25,-97 -26,-184 -1,-94 -35,-104 13,-168 36,-16 -29,-15 16,4 16,7 49,53 84,-17 -12,-29 -4,-16 -27,-34 -50,-38 -72,-1 -82,-215 -1,-45 11,-59 21,-99 33,18 58,15 94,27 69,-1 28,2 91,-18 25,17 7,-6 15,32l107 26c-13,-57 -15,-65 -79,-73 87,-50 28,-102 -95,-89 -53,5 -83,27 -106,4 -34,-31 42,-89 45,-81l26 2c77,5 160,-32 94,-85l-88 -71 11 -75c-20,-11 -218,3 -274,7 -115,9 -163,-42 -244,-41 -173,18 -197,-43 -319,83 -78,80 3,231 23,311 -43,23 -67,58 -93,104 27,93 109,131 179,189 32,27 40,56 58,70 72,60 298,-6 403,9l25 4c2,4 5,5 6,10 11,84 20,-17 20,198 -45,-6 -79,14 -131,-39 -49,-51 -11,-29 -114,-27 -73,2 -151,0 -179,73 -38,96 6,47 36,45l-47 34c-4,3 -6,5 -10,9l-18 18c67,10 101,62 140,106 33,37 -10,25 64,40 -4,-41 -32,-72 26,-82 52,-9 42,19 59,63 3,1 9,-2 11,3 2,4 9,1 11,2 14,1 31,1 36,1 -15,-7 -23,-15 -9,-36 30,-45 -34,0 30,-27 -4,66 -12,58 31,86 -24,-107 68,-79 96,1 23,70 46,135 46,222 56,11 96,118 123,169 -26,42 -47,69 -49,129l-49 13c12,90 37,153 -62,51 -23,-25 -37,-59 -53,-91l-36 -87c-3,-39 4,-2 -32,-38 -74,-73 -20,-112 -76,-189 -37,-50 3,-26 -51,-44l-21 61c-1,33 22,80 14,112 -27,115 -49,151 26,260l177 290c37,92 -32,2 -54,-26 -26,-35 -9,3 -24,-41l-68 14c10,50 33,78 55,116 1,2 3,5 4,8 2,2 4,5 5,8 14,22 4,4 16,23 11,20 20,39 32,61 37,70 37,123 90,218l91 156c48,63 145,202 216,215 26,-39 17,-56 19,-75 4,-39 -2,12 6,-31 10,-50 12,-9 -2,-61 -6,-23 -14,-51 -21,-66 69,7 156,52 96,-90 -44,-103 -55,-89 -4,-177 59,12 44,3 73,59 37,70 70,203 78,271 -21,-10 -13,11 -7,-23z"/>
  <path class="fil6" d="M2882 8455l0 0zm311 -168c49,11 53,5 78,39 -62,-2 -51,0 -78,-39zm-596 -3563c-28,0 -66,-3 -92,-2 -97,4 -41,3 -67,25l-14 12c-46,37 17,-11 -15,11 -2,1 -18,10 -24,14 -27,19 -21,15 -38,38 -16,-26 -4,-4 -27,-19l-11 75 88 71c66,53 -17,90 -94,85l-26 -2c-3,-8 -79,50 -45,81 23,23 53,1 106,-4 123,-13 182,39 95,89 64,8 66,16 79,73l-107 -26 -3 48c-64,0 -42,6 -55,21 -29,32 -18,13 -23,57 67,18 79,49 102,93 2,3 8,13 10,16l16 35c79,219 12,129 2,258 38,40 58,25 52,90 -39,-11 -28,-1 -38,-39 -35,3 -62,10 -85,33 -127,129 8,181 -71,239 -25,-109 -111,-170 -117,-310 -2,-51 -16,-168 -1,-182 25,-25 14,-6 29,-3 37,5 16,23 102,-22 -20,-88 -4,-56 -66,-91 -24,-14 -45,-7 -51,-104 -14,-231 14,-114 91,-153 -36,-12 -61,-9 -94,-27 -10,40 -22,54 -21,99 10,214 32,177 82,215 23,18 15,5 27,34 -35,70 -68,24 -84,17 -45,-19 20,-20 -16,-4 -48,64 -14,74 -13,168 1,87 -2,119 26,184 19,46 46,88 70,138l22 70c11,20 26,25 31,49 -40,35 -13,5 -45,13 71,170 96,88 144,297 119,511 186,296 115,466 -48,115 170,206 151,484 26,25 30,80 172,169 61,38 149,82 224,100 -9,76 -56,139 4,203l139 110c-128,56 -51,38 -158,88 -73,35 -72,86 -127,111l-66 19c0,86 10,88 39,145l-129 -40c32,50 54,65 90,116l0 0 40 7c2,0 6,1 8,2l17 4c88,8 54,45 143,52 41,4 152,13 174,7 28,-9 61,-46 161,-32 74,10 95,36 79,103 132,-70 110,34 168,-91 -14,-39 6,-31 -65,-50 -141,-39 -171,-149 -77,-157 -25,-91 -174,-106 -250,-242l-32 -46c-2,-2 -4,-5 -6,-7l-166 -146c0,-51 10,-87 23,-120 25,-66 47,-47 55,-74 25,-84 -102,-173 -147,-229 -33,-39 -33,-18 -34,-82 77,8 -7,-2 57,20l20 7c134,37 121,9 157,6l18 1c2,0 29,7 33,7 -11,-17 -16,-24 -30,-41 16,-47 14,-32 40,-62 -111,-163 -154,-131 -203,-290 -30,-97 -49,-63 -108,-256 -14,-46 -12,-31 -49,-66 -142,-131 -82,-190 -107,-243 -17,-36 -28,-30 -35,-82 -24,-183 22,-3 -43,-203 -21,-66 -24,-136 29,-185 -53,-75 -87,-84 -78,-221l-50 -494c-6,-54 -1,-100 5,-148 17,-131 -26,-52 7,-106 -73,-83 8,-50 -52,-146 -1,-3 -4,-6 -6,-8 -21,-35 -27,-72 -20,-108 121,0 238,-8 339,13 -36,-37 -13,-17 -55,-35l-18 -7c-4,-1 -16,-7 -19,-8 -25,-12 16,-1 -27,-13 -33,5 -54,16 -81,20 -57,9 -55,-6 -100,18z"/>
  <path class="fil7" d="M3336 7263l4 4c-1,0 -6,-3 -4,-4zm-13 -91c0,-33 20,-2 7,0 0,0 -7,36 -7,0zm65 -466l3 4c0,-1 -5,-3 -3,-4zm-91 -454l4 4c-1,0 -5,-3 -4,-4zm-13 -350c84,-7 63,-33 91,-91 77,41 57,79 87,173 21,68 68,130 81,177l-181 0c-24,-100 -26,-146 -91,-182 25,-45 23,-29 13,-77zm-26 1493c171,95 111,185 251,236 -6,-68 2,-58 -27,-100 -41,-57 -19,-23 -23,-84l-58 -428c0,-21 6,-84 4,-119 -3,-49 -13,-65 -13,-117l196 -84c0,-37 -4,-61 -6,-92 -4,-54 -2,-27 20,-49 22,-21 39,-7 52,-81l-1 -37c-57,-15 -52,8 -111,16 -42,5 -91,-1 -137,-2l-38 -223c80,-1 190,-3 232,-52 21,-50 -12,-151 -39,-186l-6 -13c-9,-84 -62,-169 -31,-272 -75,-29 -69,-79 -150,-65 -69,0 -127,6 -180,-13 -11,-43 -16,-71 26,-118 17,-20 6,-8 26,-22 71,-42 -34,-99 187,-101 -60,-13 15,-12 -67,-31 -58,-13 -216,32 -309,32 -8,-20 -16,-36 -28,-49 -9,-10 -6,-6 -21,-17 -74,-57 -85,-37 -170,-182 -24,-41 -40,-66 13,-76 -110,-9 -36,-19 -100,-50 -16,-9 -86,-14 -114,-18 -33,54 10,-25 -7,106 -6,48 -11,94 -5,148l50 494c-9,137 25,146 78,221 -53,49 -50,119 -29,185 65,200 19,20 43,203 7,52 18,46 35,82 25,53 -35,112 107,243 37,35 35,20 49,66 59,193 78,159 108,256 49,159 92,127 203,290 -26,30 -24,15 -40,62 14,17 19,24 30,41z"/>
  <path class="fil8" d="M5189 1910l0 0zm0 0l0 0zm-324 -38c8,-9 55,-10 27,14 -22,18 -34,-8 -27,-14zm26 -69c-43,22 -6,-5 -44,38 -28,31 -23,17 -34,56 95,23 117,51 117,169 -149,-12 -82,-28 -233,26 -57,20 -10,6 -78,0l28 37c-24,33 -35,58 -67,79 -49,-13 -38,-25 -78,-51 -16,77 23,88 -25,118 -42,26 -73,-20 -104,-41 0,113 -5,124 -77,183 -28,23 -29,9 -40,52 49,23 68,1 117,25 -5,69 -34,49 -141,170 -33,38 -135,142 -145,180l93 101c-4,77 -49,124 -50,194 -1,50 14,18 -16,80 -6,12 -15,30 -23,43l-30 35c68,60 55,182 168,156l-59 -84c-19,-31 -39,-56 -57,-85 29,-20 35,-33 65,-52 23,-14 53,-26 77,-39 0,-117 -62,-156 75,-276 33,-28 76,-54 115,-78 51,-31 78,-42 148,-48 -48,77 -78,51 -145,193 -78,164 48,196 -49,340 -73,-6 -95,-70 -143,-104 -27,51 3,24 -38,39l0 38c74,27 11,75 142,64 12,53 13,61 13,130 65,-16 113,-42 106,64 -5,68 -43,87 -107,93l-16 -143c-51,0 -49,5 -88,-13 25,100 11,99 69,125 2,1 6,2 9,3 -49,59 5,67 55,128 2,3 8,13 11,15 31,35 -16,26 64,27 -20,-72 -44,-21 -52,-105 63,-16 35,-39 131,-38 -9,110 -77,51 -40,219 15,66 2,44 56,66 -23,-37 -31,-43 -49,-78 2,-2 6,-6 7,-7l103 -109c-26,-67 -10,17 -27,-66 -1,-9 -14,-76 -14,-81 -10,-71 -10,-30 14,-71 33,-55 78,-95 123,-140 28,-27 164,-106 -43,-174 60,-66 109,-148 107,-246l-9 -13 0 -13c-2,-28 -8,-51 -14,-90l1 -46c36,7 37,13 78,15 -18,-20 -55,-24 -58,-32 -2,-3 -7,-1 -10,-2 3,-42 5,-46 14,-78l10 -13c13,-52 4,-27 37,-63 177,-185 -6,-192 312,-286 119,-35 99,-82 166,-169 75,-98 137,-114 178,-156 -101,-82 -119,-65 -170,-220l-8 -11c-46,3 -72,20 -124,30 25,-27 55,-38 93,-55 -79,4 -138,22 -239,12 -125,-12 -59,7 -158,33z"/>
  <path class="fil9" d="M4074 2144l4 4c0,-1 -5,-3 -4,-4zm-350 661c0,95 -24,91 -25,168 64,43 140,62 142,169 -58,-39 -72,-75 -146,-117 -11,34 -4,8 -12,24 -2,6 -4,3 -14,31 20,14 18,15 37,29 78,60 46,24 42,47 -1,3 -12,27 -14,41 60,0 59,6 94,26 51,-19 8,4 49,-40 11,147 -44,-1 -26,205 16,186 52,116 78,191 -36,-10 -51,-21 -78,-46 -34,-30 -36,-39 -37,-74 0,-89 -3,-157 -80,-165 -14,82 -39,39 -4,136l7 85c18,72 71,53 57,126 -15,74 -58,71 16,149 -81,128 -46,109 4,131 21,9 57,22 69,34 53,51 -6,88 92,121 73,11 88,59 187,10 1,0 19,-10 26,-13 16,-9 21,-10 35,-18 20,-13 9,-5 23,-19 -44,-75 -97,-45 -170,-80 20,-46 20,-9 84,-68 17,-16 -1,-3 18,-18l210 125c99,57 73,122 220,121 -5,-66 -31,-66 -27,-113l4 -20c2,-48 -6,-36 -14,-51 -54,-22 -41,0 -56,-66 -37,-168 31,-109 40,-219 -96,-1 -68,22 -131,38 8,84 32,33 52,105 -80,-1 -33,8 -64,-27 -3,-2 -9,-12 -11,-15 -50,-61 -104,-69 -55,-128 -3,-1 -7,-2 -9,-3 -58,-26 -44,-25 -69,-125 39,18 37,13 88,13l16 143c64,-6 102,-25 107,-93 7,-106 -41,-80 -106,-64 0,-69 -1,-77 -13,-130 -131,11 -68,-37 -142,-64l0 -38c41,-15 11,12 38,-39 48,34 70,98 143,104 97,-144 -29,-176 49,-340 67,-142 97,-116 145,-193 -70,6 -97,17 -148,48 -39,24 -82,50 -115,78 -137,120 -75,159 -75,276 -24,13 -54,25 -77,39 -30,19 -36,32 -65,52 18,29 38,54 57,85l59 84c-113,26 -100,-96 -168,-156l30 -35c8,-13 17,-31 23,-43 30,-62 15,-30 16,-80 1,-70 46,-117 50,-194l-93 -101c10,-38 112,-142 145,-180 107,-121 136,-101 141,-170 -49,-24 -68,-2 -117,-25 -52,-27 -60,-8 -99,-60 -28,-38 -9,-24 -30,-31 -24,-10 -19,57 -27,-27 59,-1 47,9 61,-46 4,-20 7,-16 1,-38l-23 -20c44,-61 37,44 39,-64 -42,-5 12,5 -20,-5 -2,-1 -7,-2 -9,-3 -64,-24 -2,-37 -88,-57 0,51 -4,52 -12,90l-52 13 -17 98c-2,19 21,29 -10,33 -35,5 4,14 -12,-12l-9 -18c-1,-2 -2,-7 -4,-10 -15,55 -27,58 -59,-18l-19 -47c0,429 13,204 -95,423l-48 135z"/>
  <path class="fil2" d="M7276 2105c24,28 53,49 64,91 -38,-26 -57,-36 -64,-91zm-350 0l0 0zm0 0l-55 -49 55 -3 0 52zm-1154 -575l-72 11c-27,12 -78,22 -119,6 -43,-16 -34,-28 -53,-62 -31,83 40,108 -71,105 -17,-35 -26,-51 0,-91l-35 1c-128,55 -54,-32 -281,64l-56 22c-26,11 -11,3 -26,13 62,0 25,0 39,13l26 13 13 13c22,35 23,25 -2,85 40,36 80,-6 144,12 39,11 -35,10 64,19l26 -30c40,-46 25,-54 93,-61 128,-13 76,-19 168,40 -116,62 9,21 -107,38 -70,11 -36,13 -75,111 120,-26 76,13 272,-50 64,8 153,-43 220,-61 72,-18 181,-33 252,-5 112,45 145,-4 249,11 60,9 206,-4 264,-18 5,50 12,34 13,91 -89,2 -73,25 -95,31 0,0 -33,2 -49,5 -33,6 -34,9 -63,16l5 7c15,33 -5,-11 8,53 6,27 12,8 -18,37 -1,1 -5,4 -8,6 53,0 42,-4 78,13l-136 104c-23,11 -21,2 -43,12 -56,26 -23,-5 -46,44 83,58 60,11 210,-84 37,-23 36,-27 75,-6 -6,53 -54,69 -91,94 23,36 -7,8 31,24 45,-23 68,-55 110,-78 44,-24 96,-26 136,-45 0,167 -21,117 -13,246 0,57 5,70 52,75 71,7 43,-29 78,-55l13 -56c8,-9 13,-4 26,-29l15 52 62 -26c1,-73 13,-72 26,-129 111,26 30,14 86,57 39,29 61,12 96,59 -12,45 -7,40 -52,52l0 26c40,3 62,12 91,26 0,95 -25,73 -46,96 -27,32 -6,-1 -3,29 3,37 14,1 -7,56 105,71 -2,34 30,117 51,1 81,-10 101,63 2,8 2,36 3,48l115 -72c12,-43 14,-34 14,-92 -84,4 18,-160 27,-206 -2,-81 -2,-51 -22,-111 -22,-65 -6,-8 -7,-38l-3 -29c-32,-116 9,-94 18,-198 -38,-25 -42,-39 -96,-60 -44,-17 -75,-18 -119,-36 -76,-29 -133,-83 -226,-85 44,-91 -51,-171 -65,-221 -44,33 -13,46 -90,52 19,40 13,48 13,104 -61,-14 -49,-24 -91,-52 0,-65 12,-58 13,-117 -73,-19 -20,-54 -49,-132 -24,-65 -53,-53 -55,-140 -2,3 -3,4 -4,9 -6,51 -59,80 -65,140 -4,32 3,1 -5,37 -26,116 -13,43 9,138l-228 -58c-102,-3 -18,-35 -135,-22 -34,3 -69,4 -103,3 -81,-4 -109,-14 -143,-65 -106,51 -187,71 -311,21z"/>
  <path class="fil10" d="M6031 3932l4 4c0,0 -5,-2 -4,-4zm130 -700l4 4c0,0 -5,-2 -4,-4zm-520 913c45,-2 55,-12 93,-11 13,-15 11,-22 77,-22 33,0 60,6 80,13 54,17 73,42 129,56 45,-101 40,-86 137,-136l173 -100c0,-96 34,-188 76,-260 68,-114 20,-129 69,-178 39,-38 136,-34 192,-93 46,-48 11,-149 51,-234 -63,-1 -131,-24 -194,-26 -68,-3 -110,14 -194,14 -186,-2 -219,-6 -338,77 100,201 358,-18 376,207 -355,85 -313,4 -440,1 -26,37 -58,85 -91,116 -49,-4 -64,-18 -128,-12 -55,5 -69,7 -79,51 36,3 14,-1 43,9 53,17 14,3 34,17 -108,57 -46,152 104,156 -111,209 -228,113 -259,233 100,24 110,-31 194,26 -30,57 -31,51 -116,52 5,29 1,20 11,44z"/>
  <path class="fil10" d="M4139 5202c0,-33 21,-2 8,0 0,0 -8,37 -8,0zm208 142c-32,-44 -40,-40 -69,-99 -48,-98 -110,-130 -156,-207 -10,-17 -21,-42 -27,-63 -28,-91 -5,-43 -101,-158 -82,-99 -280,-184 -357,-117 -32,29 -2,19 -41,50 -19,14 -31,13 -53,24 24,54 2,82 33,149 104,220 162,50 273,258 62,114 266,243 333,367 63,118 -20,48 145,296 82,124 39,52 123,136 100,99 89,177 126,224 46,59 150,60 225,-56 -36,-153 -84,-154 -135,-228 -111,-161 -264,-501 -319,-576z"/>
  <path class="fil1" d="M2636 4998c28,4 98,9 114,18 64,31 -10,41 100,50 -53,10 -37,35 -13,76 85,145 96,125 170,182 15,11 12,7 21,17 12,13 20,29 28,49 93,0 251,-45 309,-32 82,19 7,18 67,31 -221,2 -116,59 -187,101 3,33 -45,60 111,34 210,-35 85,10 196,-65l87 -44c0,-3 -3,-6 -4,-6 -21,-25 -34,-7 -26,-31 12,-34 3,-5 30,-11 67,-16 51,-29 96,-28 14,0 91,21 86,-19l-15 -41c-38,-65 -135,-130 -217,-201 -193,-167 -200,-78 -349,-154 -110,-55 -108,-76 -176,-155 -75,0 -107,9 -167,-20 -101,-21 -218,-13 -339,-13 -7,36 -1,73 20,108 2,2 5,5 6,8 60,96 -21,63 52,146z"/>
  <path class="fil10" d="M6083 2805l4 4c0,-1 -5,-3 -4,-4zm117 -143c-64,0 -231,25 -283,41 -137,42 -51,125 -108,189 -31,34 -77,40 -86,84 -10,54 35,70 49,101 17,37 -63,128 65,194 100,-95 42,-108 254,-186 86,-32 234,-111 329,-112 128,0 304,45 381,18 57,-19 75,-61 62,-109 -39,-138 -62,-45 -67,-129 0,-24 3,-38 -5,-60 -13,-39 -71,-57 -112,-57 -206,0 -116,55 -194,65 -91,12 -188,-39 -285,-39z"/>
  <path class="fil1" d="M5487 1535c0,66 0,21 -13,38 0,-68 0,-19 13,-38zm213 6l0 0zm-213 -6c0,-67 0,-22 13,-39 0,68 0,19 -13,39zm-78 -169l4 4c0,0 -5,-3 -4,-4zm-64 -117c51,12 52,6 64,52 -28,-19 -44,-24 -64,-52zm-221 0l4 4c0,0 -5,-2 -4,-4zm-337 -453l4 4c0,-1 -5,-3 -4,-4zm-142 220l262 204 223 88c121,38 90,-9 161,72 55,63 29,-26 131,120l35 -1c-26,40 -17,56 0,91 111,3 40,-22 71,-105 19,34 10,46 53,62 41,16 92,6 119,-6l72 -11c0,-129 -26,-122 -59,-170 -34,-48 -43,-98 -82,-137l-80 -76c-179,-160 -155,-99 -308,-211 -48,-35 -92,-28 -147,-73 -119,-96 -5,-65 -235,-102 -43,-7 -64,-14 -100,-17 18,77 23,122 86,160l302 204c45,26 115,73 144,116 -224,-53 -203,-125 -469,-167 -114,-18 -112,-39 -179,-41z"/>
  <path class="fil9" d="M4015 4734c140,138 88,116 206,156 144,47 76,97 251,97 -16,30 -23,16 -45,50l-34 93 154 1c9,-47 28,-109 80,-84 75,-9 55,-11 133,-52 24,-13 1,5 24,-13 -84,-98 -51,-161 -34,-248 15,-76 0,-100 121,-118 87,-12 54,18 77,-46 30,-82 -16,-40 90,-140 -3,-3 -7,-5 -10,-7 -3,-1 -7,-4 -11,-6 -81,-39 -20,9 -74,-25 -99,-1 -72,5 -131,46l72 21c-73,42 -392,82 -481,95 -90,14 -206,-6 -261,42 -31,28 -18,46 -65,76 -44,28 -91,14 -62,62z"/>
  <path class="fil10" d="M5850 2273l0 39 -39 0c28,-52 -2,-23 39,-39zm26 0c4,-50 -8,-39 39,-52 20,44 17,46 -39,52zm298 -155l0 26c-39,-1 -47,-6 -78,-13 33,-45 22,-26 78,-13zm-380 39c-36,25 -45,19 -82,56l-199 213 -13 3c-12,47 -1,34 -52,39l-4 13c-3,45 -6,16 17,26 97,-24 214,-28 311,-52l452 -93c125,-44 92,-5 141,-40 1,-1 18,-18 19,-20l192 -126c-38,-16 -8,12 -31,-24 37,-25 85,-41 91,-94 -39,-21 -38,-17 -75,6 -150,95 -127,142 -210,84 23,-49 -10,-18 46,-44 22,-10 20,-1 43,-12 -59,0 -53,-3 -98,-13l13 -52c-97,8 -7,25 -155,13l0 -26c99,-23 51,-78 194,-78 -10,-49 -2,-9 -2,-33l2 -15c0,0 1,-2 0,-4l-265 46c-123,26 -57,126 -175,136l32 20c19,19 12,2 20,32 -30,7 -69,18 -95,22 -51,8 -73,8 -117,17z"/>
  <path class="fil10" d="M5137 7069l4 3c0,0 -5,-2 -4,-3zm26 -91c38,9 19,-2 39,26l-39 0 0 -26zm-52 -207l4 3c0,0 -5,-2 -4,-3zm91 -247l4 4c0,0 -5,-2 -4,-4zm-52 -129l4 4c0,-1 -5,-3 -4,-4zm-90 -13l21 17c13,12 9,7 20,19l36 41c50,17 37,56 30,94 -28,139 -92,70 -85,218 4,79 25,62 41,115 -26,17 -52,34 -78,51 4,53 13,62 13,132 -4,2 -13,8 -15,9l-15 11c-2,1 -5,4 -8,6l52 0c-32,48 -27,28 -13,90 56,-13 152,-37 195,-63 -62,-25 24,-8 -25,-42 -10,-7 -16,-6 -26,-10l38 -18c12,-8 23,-17 43,-30 182,-117 -45,-179 14,-310 118,-260 29,-123 70,-256 17,-55 35,-75 -15,-122l-89 -66c-117,-43 -175,0 -244,48l40 66z"/>
  <path class="fil8" d="M2299 5231c-77,39 -105,-78 -91,153 6,97 27,90 51,104 62,35 46,3 66,91 -86,45 -65,27 -102,22 -15,-3 -4,-22 -29,3 -15,14 -1,131 1,182 6,140 92,201 117,310 79,-58 -56,-110 71,-239 23,-23 50,-30 85,-33 10,38 -1,28 38,39 6,-65 -14,-50 -52,-90 10,-129 77,-39 -2,-258l-16 -35c-2,-3 -8,-13 -10,-16 -23,-44 -35,-75 -102,-93 5,-44 -6,-25 23,-57 13,-15 -9,-21 55,-21l3 -48c-8,-38 10,-15 -15,-32 -63,20 -22,17 -91,18z"/>
  <path class="fil10" d="M5033 5436c16,24 15,-29 11,26 -2,27 -1,11 -11,25l0 -51zm-406 -389c-34,47 -27,-15 -48,65 76,67 81,54 172,140 219,207 128,25 263,358 64,157 43,73 45,267l55 -1c6,-37 -1,-37 10,0l66 -26 -59 -278c-33,-85 -67,-154 -95,-229 -15,-38 -27,-96 -42,-127 -42,-90 -153,4 -176,-84 -18,-68 41,-52 11,-111 -16,-30 -21,-26 -45,-39 -23,18 0,0 -24,13 -78,41 -58,43 -133,52z"/>
  <path class="fil11" d="M4852 6926c-81,0 -102,5 -104,-78 -34,23 -27,6 -37,52l3 43 -65 1c143,7 146,96 247,146 -6,30 -13,60 -31,82 -55,71 -106,-7 -118,122 -7,71 -33,74 -105,98 -75,25 -118,101 -156,164 -43,71 -65,37 -83,83 81,-8 141,-78 189,-118 56,-47 24,5 33,-55 9,-55 -12,-32 106,-91 52,-25 95,-55 160,-60 -56,-117 45,-167 99,-199l23 -16c1,-1 5,-3 7,-5 3,-2 6,-5 8,-6l15 -11c2,-1 11,-7 15,-9 0,-70 -9,-79 -13,-132 26,-17 52,-34 78,-51 -16,-53 -37,-36 -41,-115 -7,-148 57,-79 85,-218 7,-38 20,-77 -30,-94 0,106 2,90 -81,191 -43,52 -109,83 -165,121 0,126 37,185 39,285 -77,-7 -113,-57 -78,-130z"/>
  <path class="fil8" d="M3426 3142l0 26 -38 0c20,-30 2,-16 38,-26zm13 -52l0 0zm26 -13l0 0zm0 0l-26 13 -39 0c-9,30 -10,-19 6,11 14,26 16,-13 7,15l-64 0 25 15c-1,76 -21,81 -67,111 -23,15 -5,1 -23,16 73,0 62,-8 116,22 90,12 172,-10 226,38 77,71 44,112 109,164l-5 -52c-35,-97 -10,-54 4,-136 77,8 80,76 80,165 1,35 3,44 37,74 27,25 42,36 78,46 -26,-75 -62,-5 -78,-191 -18,-206 37,-58 26,-205 -41,44 2,21 -49,40 -35,-20 -34,-26 -94,-26 2,-14 13,-38 14,-41 4,-23 36,13 -42,-47 -19,-14 -17,-15 -37,-29 10,-28 12,-25 14,-31 8,-16 1,10 12,-24 -46,-39 -38,5 -113,-13 22,33 41,72 52,117 -53,-2 -79,-21 -107,-75 -14,-29 -10,-14 -10,-55 -36,26 -16,24 -52,78z"/>
  <path class="fil8" d="M3699 3764c2,-3 54,-3 27,18 -14,10 -35,-11 -27,-18zm-39 26c1,1 24,24 26,26 -19,80 -39,97 -91,142 215,0 146,41 207,269 57,-22 183,-35 236,-100l-63 -51c-98,-33 -39,-70 -92,-121 -12,-12 -48,-25 -69,-34 -50,-22 -85,-3 -4,-131 -74,-78 -31,-75 -16,-149 14,-73 -39,-54 -57,-126 -16,29 -17,31 -5,100 -80,9 -126,125 -72,175z"/>
  <path class="fil9" d="M5239 4449c18,15 15,-20 15,28l-15 -28zm-285 352c235,0 103,-45 183,-130 27,-29 61,-33 82,-74 29,-57 0,-75 74,-82 -1,-43 -6,-46 -16,-81 -64,-1 -23,0 -38,15 -17,18 -13,-24 -15,22 -1,-4 -4,-20 -5,-23 -9,-22 -8,-16 -17,-29 -22,0 -61,-3 -81,-1 -54,4 -44,-15 -54,21 -9,29 55,43 79,56 -10,22 -17,47 -27,67 -122,1 -145,-4 -195,77 -43,-5 -35,-33 -105,24l-45 66c-16,70 202,51 268,51l-67 11c-3,1 -9,8 -11,5 -1,-3 -7,2 -10,5z"/>
  <path class="fil12" d="M4878 1768c31,-18 82,-23 130,-25 81,-2 78,0 127,-20 25,-60 24,-50 2,-85 -28,0 -2,4 -13,-13l-26 -13c-61,0 -24,1 -39,-13 -72,-6 -92,-24 -148,-47 -70,-29 -76,2 -124,34 18,27 60,60 68,77 39,81 -47,37 23,105z"/>
  <path class="fil2" d="M3452 6097l0 0zm0 0c-37,-28 -16,-9 -39,-52 36,13 27,-1 39,52zm-155 -130c0,-33 20,-2 8,0 -1,0 -8,36 -8,0zm-13 -65c10,48 12,32 -13,77 65,36 67,82 91,182l181 0c-13,-47 -60,-109 -81,-177 -30,-94 -10,-132 -87,-173 -28,58 -7,84 -91,91z"/>
  <path class="fil8" d="M3232 3051l26 0c-20,29 -2,16 -39,26l13 -26zm0 0c-52,14 -42,22 -65,65 13,-3 92,-25 101,-29 2,-2 6,-4 8,-5l25 -27c22,-22 22,-16 48,-30l-91 -91c7,30 10,30 13,65l-39 52z"/>
  <path class="fil13" d="M1573 2558c70,64 145,-24 151,-45 16,-52 -5,-41 -8,-45 -19,38 -5,50 -44,73 -25,15 -63,17 -99,17z"/>
  <path class="fil14" d="M4243 1820l0 13 155 -16 0 -10c-29,0 -66,-7 -75,-5 -44,6 -8,18 -80,18z"/>
  <path class="fil13" d="M1456 2636c44,-3 48,-10 78,-26 0,-6 1,-36 1,-39l-14 -39 0 65 -65 39z"/>
  <path class="fil13" d="M1703 2623l77 -15 0 -11c-92,0 -35,-31 -77,26z"/>
  <polygon class="fil15" points="6433,1884 6485,1884 6485,1872 6433,1872 "/>
  <path class="fil16" d="M1651 4010l-39 0 0 13c62,0 25,0 39,-13z"/>
  <path class="fil17" d="M3634 8313l-39 0 0 13c68,0 19,0 39,-13z"/>
  <path class="fil18" d="M3504 2947l0 39 13 0c0,-68 0,-19 -13,-39z"/>
  <path class="fil19" d="M1612 4023c-62,0 -25,0 -39,13 62,0 25,0 39,-13z"/>
  <path class="fil13" d="M1651 2442c13,13 47,-19 15,-7 0,0 -37,-15 -15,7z"/>
  <path class="fil20" d="M3478 2805c4,49 7,25 12,66l9 68c1,2 3,6 5,8l-26 -142z"/>
  <polygon class="fil16" points="4554,4412 4541,4412 4552,4427 "/>
  <polygon class="fil13" points="1936,2403 1936,2390 1921,2401 "/>
  <polygon class="fil13" points="1431,2636 1431,2623 1415,2634 "/>
  <polygon class="fil18" points="3699,2766 3699,2753 3683,2764 "/>
  <polygon class="fil16" points="3582,3854 3569,3854 3580,3870 "/>
  <polygon class="fil18" points="3465,2792 3465,2779 3450,2790 "/>
  <polygon class="fil21" points="4748,6848 4761,6848 4751,6833 "/>
  <polygon class="fil8" points="3258,2934 3258,2921 3243,2932 "/>
  <polygon class="fil13" points="1703,2455 1703,2442 1688,2453 "/>
  <polygon class="fil13" points="1521,2532 1521,2520 1506,2530 "/>
  <polygon class="fil8" points="3167,3116 3154,3116 3165,3131 "/>
  <polygon class="fil22" points="4191,1846 4178,1846 4189,1861 "/>
  <polygon class="fil23" points="3582,3012 3582,2999 3567,3010 "/>
  <polygon class="fil13" points="1353,2792 1340,2792 1351,2807 "/>
  <polygon class="fil18" points="8312,1392 8325,1392 8315,1377 "/>
  <polygon class="fil21" points="4852,6926 4865,6926 4854,6911 "/>
  <path class="fil19" d="M1340 4826c1,2 4,-5 4,-3l0 0c-1,0 -5,2 -4,3z"/>
  <path class="fil16" d="M1379 4814c1,1 4,-6 4,-4l0 0c-1,0 -6,2 -4,4z"/>
  <path class="fil24" d="M8274 2338c1,1 3,-6 3,-4l0 0c0,0 -5,3 -3,4z"/>
  <path class="fil25" d="M8131 1003c1,1 4,-6 4,-4l0 0c0,1 -5,3 -4,4z"/>
  <path class="fil21" d="M4139 2144l4 -4c0,0 -5,2 -4,4z"/>
  <path class="fil26" d="M4191 2144l4 -4c0,0 -5,2 -4,4z"/>
  <path class="fil21" d="M4360 2221l3 -3c0,0 -5,2 -3,3z"/>
  <path class="fil21" d="M4152 2118l4 -4c0,0 -5,2 -4,4z"/>
  <path class="fil27" d="M4087 6485l4 -3c0,0 -5,2 -4,3z"/>
  <path class="fil13" d="M1703 2429l4 -4c-1,0 -6,3 -4,4z"/>
  <path class="fil16" d="M6731 1314l4 -4c0,1 -5,3 -4,4z"/>
  <path class="fil13" d="M1884 2351l4 -4c0,0 -5,3 -4,4z"/>
  <path class="fil16" d="M6394 2014l4 -4c0,0 -5,3 -4,4z"/>
  <path class="fil24" d="M3556 3971l4 -4c0,0 -5,3 -4,4z"/>
  <path class="fil16" d="M4697 1703l3 -4c0,0 -5,3 -3,4z"/>
  <path class="fil16" d="M4178 2170l4 -4c0,0 -5,2 -4,4z"/>
  <path class="fil5" d="M3141 8546l4 -4c0,0 -5,3 -4,4z"/>
  <path class="fil16" d="M4139 1859l4 -4c0,0 -5,2 -4,4z"/>
  <path class="fil27" d="M4049 2105l3 -4c0,0 -5,3 -3,4z"/>
  <path class="fil8" d="M3258 3271l4 -4c0,1 -5,3 -4,4z"/>
  <path class="fil8" d="M3297 3103l4 -4c-1,0 -5,2 -4,4z"/>
  <path class="fil13" d="M1871 2377l4 -4c0,0 -5,3 -4,4z"/>
  <path class="fil27" d="M3880 2196l4 -4c0,0 -5,2 -4,4z"/>
  <path class="fil13" d="M1832 2338l6 -5c0,0 -2,1 -2,1 0,0 -5,3 -4,4z"/>
  <polygon class="fil13" points="1962,2429 1949,2416 "/>
  <polygon class="fil13" points="1949,2416 1936,2403 "/>
  <polygon class="fil8" points="3349,3116 3323,3101 "/>
  <polygon class="fil20" points="3724,2805 3712,2779 "/>
  <polygon class="fil27" points="4619,2092 4593,2077 "/>
  <polygon class="fil15" points="6355,2027 6383,2020 "/>
  <polygon class="fil16" points="3750,6602 3737,6615 "/>
  <polygon class="fil22" points="4191,1846 4219,1838 "/>
  <polygon class="fil22" points="4645,1016 4619,1001 "/>
  <polygon class="fil20" points="3478,2805 3465,2792 "/>
  <polygon class="fil20" points="3712,2779 3699,2766 "/>
  <polygon class="fil13" points="1573,2558 1548,2544 "/>
  <polygon class="fil13" points="1716,2468 1703,2455 "/>
  <polygon class="fil21" points="3647,8300 3634,8313 "/>
  <polygon class="fil13" points="1988,2429 1975,2429 "/>
  <polygon class="fil28" points="2947,8468 2919,8475 "/>
  <polygon class="fil29" points="3763,6589 3750,6602 "/>
 </g>
</svg>
