<?xml version="1.0" encoding="UTF-8" standalone="no"?>
<!-- Creator: CorelDRAW X7 -->

<svg
   xmlns:dc="http://purl.org/dc/elements/1.1/"
   xmlns:cc="http://creativecommons.org/ns#"
   xmlns:rdf="http://www.w3.org/1999/02/22-rdf-syntax-ns#"
   xmlns:svg="http://www.w3.org/2000/svg"
   xmlns="http://www.w3.org/2000/svg"
   xmlns:sodipodi="http://sodipodi.sourceforge.net/DTD/sodipodi-0.dtd"
   xmlns:inkscape="http://www.inkscape.org/namespaces/inkscape"
   xml:space="preserve"
   width="90.311mm"
   height="90.311mm"
   version="1.1"
   style="shape-rendering:geometricPrecision; text-rendering:geometricPrecision; image-rendering:optimizeQuality; fill-rule:evenodd; clip-rule:evenodd"
   viewBox="0 0 9031 9031"
   id="svg38"
   sodipodi:docname="SPIERSviewLogo_RJG.svg"
   inkscape:version="0.92.3 (unknown)"
   inkscape:export-filename="/home/russell/Desktop/SPIERSviewLogo.svg.png"
   inkscape:export-xdpi="97.07"
   inkscape:export-ydpi="97.07"><metadata
   id="metadata42"><rdf:RDF><cc:Work
       rdf:about=""><dc:format>image/svg+xml</dc:format><dc:type
         rdf:resource="http://purl.org/dc/dcmitype/StillImage" /><dc:title></dc:title></cc:Work></rdf:RDF></metadata><sodipodi:namedview
   pagecolor="#ffffff"
   bordercolor="#666666"
   borderopacity="1"
   objecttolerance="10"
   gridtolerance="10"
   guidetolerance="10"
   inkscape:pageopacity="0"
   inkscape:pageshadow="2"
   inkscape:window-width="1920"
   inkscape:window-height="1016"
   id="namedview40"
   showgrid="false"
   inkscape:zoom="0.97779733"
   inkscape:cx="-89.785666"
   inkscape:cy="37.74894"
   inkscape:window-x="0"
   inkscape:window-y="27"
   inkscape:window-maximized="1"
   inkscape:current-layer="svg38" />
 <defs
   id="defs4">
  <style
   type="text/css"
   id="style2">
   <![CDATA[
    .str0 {stroke:#FFCF3D;stroke-width:7.62}
    .str1 {stroke:white;stroke-width:7.62}
    .fil0 {fill:black}
    .fil3 {fill:red}
    .fil1 {fill:#FFCF3D}
    .fil2 {fill:white}
   ]]>
  </style>
 
  
  
  
 </defs>
 <g
   id="Layer_x0020_1">
  <metadata
   id="CorelCorpID_0Corel-Layer" />
  <rect
   class="fil0"
   width="9031"
   height="9031"
   rx="1764"
   ry="1764"
   id="rect7" />
 </g>
 <g
   id="Spines">
  <metadata
   id="CorelCorpID_1Corel-Layer" />
  <path
   id="path928"
   class="fil1 str0"
   d="M2287 8353c-1,-44 125,-367 226,-578 182,-379 387,-653 664,-883 124,-103 558,-381 570,-365 4,5 15,73 26,150 11,77 33,176 49,220 16,44 30,85 30,92 0,7 -38,21 -83,31 -546,117 -913,436 -1389,1205 -51,82 -93,140 -93,128l0 0z"
   inkscape:export-ydpi="97.07"
   inkscape:export-xdpi="97.07"
   inkscape:connector-curvature="0"
   inkscape:export-filename="C:\Users\artsp\Programming\path828.png" />
  <path
   id="path926"
   class="fil1 str0"
   d="M6649 8153c-256,-416 -516,-717 -778,-900 -118,-83 -394,-196 -566,-233 -46,-10 -84,-22 -84,-27 0,-4 18,-61 39,-126 21,-65 39,-154 40,-199 1,-160 15,-160 271,0 495,311 739,584 987,1102 108,227 237,561 224,579 -4,5 -64,-83 -133,-196l0 0z"
   inkscape:export-ydpi="97.07"
   inkscape:export-xdpi="97.07"
   inkscape:connector-curvature="0"
   inkscape:export-filename="C:\Users\artsp\Programming\path828.png" />
  <path
   id="path904"
   class="fil1 str0"
   d="M2032 7237c265,-495 516,-797 843,-1014 140,-93 469,-248 652,-308 53,-17 111,-38 129,-46 31,-14 33,-6 33,112 0,73 13,172 30,234 16,59 30,118 30,131 0,13 -105,32 -233,41 -129,9 -297,37 -374,61 -270,85 -627,347 -917,671 -54,60 -110,124 -127,142 -16,18 -57,66 -91,108 -34,41 -68,75 -74,75 -6,0 38,-93 99,-207l0 0z"
   inkscape:export-ydpi="97.07"
   inkscape:export-xdpi="97.07"
   inkscape:connector-curvature="0"
   inkscape:export-filename="C:\Users\artsp\Programming\path828.png" />
  <path
   id="path902"
   class="fil1 str0"
   d="M7116 7418c-41,-71 -389,-438 -559,-589 -335,-298 -700,-450 -1080,-450 -79,0 -144,-11 -144,-25 0,-13 13,-77 29,-143 16,-65 29,-172 30,-238 0,-109 3,-118 33,-104 19,8 77,29 130,46 470,154 847,406 1128,754 140,174 471,725 455,758 -5,8 -15,5 -22,-9l0 0z"
   inkscape:export-ydpi="97.07"
   inkscape:export-xdpi="97.07"
   inkscape:connector-curvature="0"
   inkscape:export-filename="C:\Users\artsp\Programming\path828.png" />
  <path
   id="path892"
   class="fil1 str0"
   d="M1793 6683c258,-520 618,-951 979,-1172 223,-137 588,-294 828,-357 15,-4 22,30 25,118 3,68 18,182 35,253 16,72 29,133 29,136 0,4 -104,15 -233,25 -575,45 -943,265 -1538,922 -90,100 -168,182 -171,182 -4,0 17,-48 46,-107l0 0z"
   inkscape:export-ydpi="97.07"
   inkscape:export-xdpi="97.07"
   inkscape:connector-curvature="0"
   inkscape:export-filename="C:\Users\artsp\Programming\path828.png" />
  <path
   id="path890"
   class="fil1 str0"
   d="M7168 6615c-220,-249 -543,-544 -725,-662 -261,-169 -619,-277 -922,-277 -71,0 -129,-10 -129,-22 0,-13 13,-73 29,-135 17,-61 30,-167 30,-234 0,-148 -14,-145 260,-53 568,193 960,488 1292,973 122,178 350,585 328,585 -4,0 -77,-79 -163,-175l0 0z"
   inkscape:export-ydpi="97.07"
   inkscape:export-xdpi="97.07"
   inkscape:connector-curvature="0"
   inkscape:export-filename="C:\Users\artsp\Programming\path828.png" />
  <path
   id="path880"
   class="fil1 str0"
   d="M1566 6061c13,-41 115,-212 215,-362 273,-410 577,-689 963,-883 181,-92 577,-242 735,-280l77 -19 0 115c0,67 15,169 37,247l36 133 -218 19c-297,26 -468,62 -667,141 -151,61 -429,224 -541,319 -135,113 -541,494 -579,543 -48,62 -74,73 -58,27l0 0z"
   inkscape:export-ydpi="97.07"
   inkscape:export-xdpi="97.07"
   inkscape:connector-curvature="0"
   inkscape:export-filename="C:\Users\artsp\Programming\path828.png" />
  <path
   id="path878"
   class="fil1 str0"
   d="M7428 6040c-91,-115 -578,-544 -741,-652 -295,-197 -543,-282 -950,-325l-299 -32 36 -125c22,-77 36,-172 36,-243 0,-97 5,-117 29,-117 68,0 616,204 784,292 378,197 627,414 887,776 218,301 397,652 218,426l0 0z"
   inkscape:export-ydpi="97.07"
   inkscape:export-xdpi="97.07"
   inkscape:connector-curvature="0"
   inkscape:export-filename="C:\Users\artsp\Programming\path828.png" />
  <path
   id="path868"
   class="fil1 str0"
   d="M7613 5568c-34,-59 -344,-372 -547,-553 -467,-414 -817,-571 -1351,-606 -145,-9 -263,-22 -263,-27 0,-5 17,-67 37,-137 20,-70 39,-184 42,-254 4,-69 13,-130 22,-135 19,-11 287,77 543,180 441,176 832,470 1097,826 134,179 357,530 405,638 48,107 55,138 15,68l0 0z"
   inkscape:export-ydpi="97.07"
   inkscape:export-xdpi="97.07"
   inkscape:connector-curvature="0"
   inkscape:export-filename="C:\Users\artsp\Programming\path828.png" />
  <path
   id="path866"
   class="fil1 str0"
   d="M1396 5562c0,-32 232,-419 357,-596 357,-505 809,-820 1501,-1048 106,-34 200,-63 209,-63 9,0 21,64 27,143 6,79 26,200 46,269 20,69 36,126 36,128 0,1 -111,9 -248,18 -394,27 -662,107 -951,287 -240,149 -587,455 -862,759 -63,69 -115,116 -115,103l0 0z"
   inkscape:export-ydpi="97.07"
   inkscape:export-xdpi="97.07"
   inkscape:connector-curvature="0"
   inkscape:export-filename="C:\Users\artsp\Programming\path828.png" />
  <path
   id="path856"
   class="fil1 str0"
   d="M1414 4714c70,-117 235,-337 373,-496 277,-319 637,-558 1088,-722 158,-57 568,-181 600,-181 11,0 21,50 25,134 5,76 22,173 40,224 18,50 29,98 25,108 -4,9 -129,23 -278,31 -635,32 -1096,257 -1751,855 -193,176 -200,179 -122,47l0 0z"
   inkscape:export-ydpi="97.07"
   inkscape:export-xdpi="97.07"
   inkscape:connector-curvature="0"
   inkscape:export-filename="C:\Users\artsp\Programming\path828.png" />
  <path
   id="path854"
   class="fil1 str0"
   d="M7642 4756c-37,-36 -150,-136 -252,-224 -578,-495 -1003,-690 -1561,-718 -131,-6 -259,-16 -286,-22l-48 -11 38 -92c25,-62 40,-139 46,-233 5,-77 15,-141 22,-141 34,0 426,117 583,174 543,195 925,475 1267,926 151,199 273,384 263,398 -3,5 -35,-21 -72,-57l0 0z"
   inkscape:export-ydpi="97.07"
   inkscape:export-xdpi="97.07"
   inkscape:connector-curvature="0"
   inkscape:export-filename="C:\Users\artsp\Programming\path828.png" />
  <path
   id="path842"
   class="fil1 str0"
   d="M1321 4225c0,-26 242,-403 341,-531 291,-378 618,-639 1032,-824 157,-71 717,-263 765,-263 12,0 22,46 28,136 5,75 26,187 47,249 20,62 37,117 37,122 0,6 -75,11 -166,13 -684,13 -1141,225 -1803,837 -102,94 -207,195 -233,225 -26,30 -48,46 -48,36l0 0z"
   inkscape:export-ydpi="97.07"
   inkscape:export-xdpi="97.07"
   inkscape:connector-curvature="0"
   inkscape:export-filename="C:\Users\artsp\Programming\path828.png" />
  <path
   id="path840"
   class="fil1 str0"
   d="M7684 4163c-123,-129 -414,-388 -574,-512 -470,-365 -874,-512 -1441,-524 -87,-2 -159,-9 -159,-16 0,-6 17,-64 38,-128 24,-76 38,-163 40,-248l4 -131 66 15c37,8 174,49 304,92 805,266 1207,580 1680,1313 127,197 140,241 42,139l0 0z"
   inkscape:export-ydpi="97.07"
   inkscape:export-xdpi="97.07"
   inkscape:connector-curvature="0"
   inkscape:export-filename="C:\Users\artsp\Programming\path828.png" />
 </g>
 <g
   id="Center">
  <metadata
   id="CorelCorpID_2Corel-Layer" />
  <path
   id="path924"
   class="fil2 str1"
   d="M4188 7127c-64,-124 -110,-337 -110,-512l0 -82 63 85c97,129 126,132 238,18 130,-133 198,-133 306,0 114,139 176,131 270,-37l41 -73 0 100c0,148 -40,380 -82,476 -57,130 -106,151 -201,83 -178,-127 -178,-127 -309,-27 -67,50 -128,90 -137,90 -8,0 -44,-54 -79,-121l0 0z"
   inkscape:export-ydpi="97.07"
   inkscape:export-xdpi="97.07"
   inkscape:connector-curvature="0"
   inkscape:export-filename="C:\Users\artsp\Programming\path828.png" />
  <path
   id="path900"
   class="fil2 str1"
   d="M4032 6308c-72,-119 -138,-328 -167,-530 -29,-197 -41,-445 -24,-464 5,-6 45,42 87,107 43,67 113,128 159,141 70,19 103,-2 223,-145 169,-202 246,-200 409,12 187,242 286,231 418,-46l66 -139 -9 236c-19,483 -132,854 -273,896 -52,15 -106,-12 -194,-97 -156,-150 -262,-152 -413,-5 -136,132 -216,142 -282,34l0 0z"
   inkscape:export-ydpi="97.07"
   inkscape:export-xdpi="97.07"
   inkscape:connector-curvature="0"
   inkscape:export-filename="C:\Users\artsp\Programming\path828.png" />
  <path
   id="path876"
   class="fil2 str1"
   d="M3992 5212c-107,-99 -211,-341 -251,-585 -25,-156 -54,-502 -41,-502 4,0 42,48 86,107 115,153 227,225 299,190 34,-16 124,-90 199,-163 190,-185 283,-179 494,28 219,216 303,216 452,1 106,-155 109,-156 109,-59 -1,412 -113,829 -258,958 -95,84 -97,83 -423,-137 -133,-90 -159,-85 -370,68 -191,139 -233,152 -296,93l0 1z"
   inkscape:export-ydpi="97.07"
   inkscape:export-xdpi="97.07"
   inkscape:connector-curvature="0"
   inkscape:export-filename="C:\Users\artsp\Programming\path828.png" />
  <path
   id="path852"
   class="fil2"
   d="M3904 3994c-148,-212 -238,-554 -254,-973l-9 -231 69 118c172,294 330,316 555,78 221,-233 329,-228 564,26 114,123 196,184 246,185 82,0 206,-113 287,-264 29,-53 56,-97 61,-97 14,0 -11,416 -35,592 -32,236 -149,525 -246,612 -72,63 -98,66 -192,18 -60,-31 -137,-87 -170,-125 -34,-37 -125,-78 -202,-91 -125,-20 -160,-6 -311,118 -204,167 -265,173 -363,34l0 0z"
   inkscape:export-ydpi="97.07"
   inkscape:export-xdpi="97.07"
   inkscape:connector-curvature="0"
   inkscape:export-filename="C:\Users\artsp\Programming\path828.png" />
  <path
   id="path832"
   class="fil2"
   d="M3838 2799c-98,-27 -153,-57 -204,-112 -63,-68 -73,-137 -33,-241 51,-135 105,-290 112,-320 8,-37 36,-246 36,-269 0,-11 19,-5 55,18 95,61 346,170 463,202 138,37 388,52 521,30 173,-28 360,-115 482,-223 27,-23 48,-37 49,-32 12,147 51,314 112,484 92,252 59,360 -133,441 -152,63 -311,52 -520,-36 -132,-55 -186,-66 -288,-59 -99,7 -139,18 -312,88 -112,45 -240,56 -340,29l0 0z"
   inkscape:export-ydpi="97.07"
   inkscape:export-xdpi="97.07"
   inkscape:connector-curvature="0"
   inkscape:export-filename="C:\Users\artsp\Programming\path828.png" />
  <path
   id="path828"
   class="fil2"
   d="M4426 2192c-271,-26 -642,-146 -717,-231 -50,-57 -135,-205 -168,-291 -32,-83 -37,-194 -13,-246 48,-102 421,-212 850,-250 309,-28 666,13 938,106 217,75 269,119 280,239 11,124 -63,291 -189,426 -112,120 -426,224 -744,247 -134,10 -137,10 -237,0l0 0z"
   inkscape:export-ydpi="97.07"
   inkscape:export-xdpi="97.07"
   inkscape:connector-curvature="0"
   inkscape:export-filename="C:\Users\artsp\Programming\path828.png" />
 </g>
 <path
   style="fill:#ff0000"
   inkscape:export-filename="C:\Users\artsp\Programming\path828.png"
   inkscape:connector-curvature="0"
   inkscape:export-xdpi="97.07"
   inkscape:export-ydpi="97.07"
   d="m 968,3712 c -6,-482 119,-984 347,-1391 182,-323 473,-647 792,-880 219,-161 550,-338 828,-444 837,-321 1822,-373 2731,-144 1193,300 2037,1034 2323,2022 71,247 114,570 109,829 -2,82 -5,125 -7,94 -36,-458 -74,-662 -177,-949 C 7569,1897 6667,1199 5458,949 4716,795 3938,829 3218,1047 2433,1284 1816,1721 1426,2317 1164,2715 1025,3154 982,3708 l -12,155 z"
   class="fil3"
   id="path850" /><path
   style="fill:#ff0000"
   inkscape:export-filename="C:\Users\artsp\Programming\path828.png"
   inkscape:connector-curvature="0"
   inkscape:export-xdpi="97.07"
   inkscape:export-ydpi="97.07"
   d="m 1210,3268 c 3,-13 14,-64 23,-114 71,-399 270,-805 555,-1134 74,-85 229,-238 288,-282 22,-17 79,-61 127,-99 177,-137 498,-310 761,-410 153,-58 468,-146 637,-178 869,-165 1840,-84 2550,211 182,76 260,115 429,215 468,277 809,633 1067,1115 86,160 208,493 240,652 l 10,52 -143,-88 c -420,-257 -818,-393 -1442,-491 -181,-29 -231,-45 -414,-133 -229,-110 -377,-270 -411,-443 -13,-64 5,-106 115,-277 117,-184 150,-265 142,-358 -11,-126 -93,-204 -296,-278 -127,-46 -275,-81 -448,-106 -152,-22 -183,-24 -459,-23 -284,0 -304,1 -473,27 -212,33 -443,96 -552,152 -111,57 -155,114 -163,213 -9,102 24,195 143,404 100,177 111,234 69,350 -61,166 -285,332 -571,423 -53,17 -226,57 -385,90 -450,92 -651,148 -895,249 -126,52 -392,201 -452,253 -44,38 -61,40 -52,8 z"
   class="fil3"
   id="path838" />
<path
   style="clip-rule:evenodd;fill:#ff0000;fill-rule:evenodd;stroke:#ffcf3d;stroke-width:0.99999988;image-rendering:optimizeQuality;shape-rendering:geometricPrecision;text-rendering:geometricPrecision;font-variant-east_asian:normal;opacity:1;vector-effect:none;fill-opacity:1;stroke-linecap:butt;stroke-linejoin:miter;stroke-miterlimit:4;stroke-dasharray:none;stroke-dashoffset:0;stroke-opacity:1"
   inkscape:export-filename="C:\Users\artsp\Programming\path828.png"
   inkscape:connector-curvature="0"
   inkscape:export-xdpi="97.07"
   inkscape:export-ydpi="97.07"
   d="m 4607.742,7930.8579 c 152.5456,-78.9422 145.3636,-181.6654 505.0864,-103.5133 164.0751,35.159 433.5041,78.2421 719.584,540.4173 30.6513,49.2827 55.8937,84.1412 55.8937,76.9291 0.601,-26.4443 -75.126,-220.57 -135.8279,-347.3826 -109.3835,-227.7822 -232.5901,-392.4584 -399.0693,-530.6902 -74.525,-61.9038 -335.3626,-228.9842 -342.5747,-219.368 l -198.9337,3.606 -37.8635,51.0857 c -58.2978,77.5301 -23.3479,-34.4453 -221.7625,-34.4453 -198.4146,0 -157.9782,111.9754 -216.276,34.4453 l -37.8635,-51.0857 -198.9338,-3.606 c -7.212,-9.6162 -268.0496,157.4642 -342.5746,219.368 -166.4792,138.2318 -289.6859,302.9081 -399.0694,530.6902 -60.7019,126.8127 -136.4289,320.9384 -135.8279,347.3827 0,7.2121 25.2424,-27.6463 55.8937,-76.929 286.0799,-462.1753 555.5089,-505.2584 719.5841,-540.4174 359.7228,-78.1521 352.5408,24.5711 505.0863,103.5133"
   class="fil1 str0"
   id="path928-3-5"
   sodipodi:nodetypes="ccccccccczccccccccc" /></svg>