<?xml version="1.0" encoding="UTF-8" standalone="no"?>
<!-- Created with Inkscape (http://www.inkscape.org/) -->

<svg
   width="210mm"
   height="297mm"
   viewBox="0 0 210 297"
   version="1.1"
   id="svg1"
   xml:space="preserve"
   inkscape:version="1.4.3 (0d15f75, 2025-12-25)"
   sodipodi:docname="icon_eye_open.svg"
   xmlns:inkscape="http://www.inkscape.org/namespaces/inkscape"
   xmlns:sodipodi="http://sodipodi.sourceforge.net/DTD/sodipodi-0.dtd"
   xmlns="http://www.w3.org/2000/svg"
   xmlns:svg="http://www.w3.org/2000/svg"><sodipodi:namedview
     id="namedview1"
     pagecolor="#edf6c6"
     bordercolor="#000000"
     borderopacity="0.25"
     inkscape:showpageshadow="2"
     inkscape:pageopacity="0.0"
     inkscape:pagecheckerboard="0"
     inkscape:deskcolor="#d1d1d1"
     inkscape:document-units="mm"
     inkscape:zoom="1.4378367"
     inkscape:cx="137.35913"
     inkscape:cy="243.0735"
     inkscape:window-width="1920"
     inkscape:window-height="1009"
     inkscape:window-x="1912"
     inkscape:window-y="-8"
     inkscape:window-maximized="1"
     inkscape:current-layer="layer1" /><defs
     id="defs1" /><g
     inkscape:label="Layer 1"
     inkscape:groupmode="layer"
     id="layer1"><path
       id="path1-5"
       style="fill:none;stroke:#e8e8e8;stroke-width:5;stroke-opacity:1;stroke-dasharray:none"
       d="M 78.96825,30.470155 A 33.167969,23.988701 0 0 1 45.800281,54.458855 33.167969,23.988701 0 0 1 12.63231,30.470155 33.167969,23.988701 0 0 1 45.800281,6.4814534 33.167969,23.988701 0 0 1 78.96825,30.470155 Z m 4.229343,0.101559 A 37.170999,23.988701 0 0 1 46.026594,54.560415 37.170999,23.988701 0 0 1 8.8555944,30.571714 37.170999,23.988701 0 0 1 46.026594,6.5830134 37.170999,23.988701 0 0 1 83.197593,30.571714 Z"
       inkscape:export-filename="..\dark\icon_eye_open.svg"
       inkscape:export-xdpi="96"
       inkscape:export-ydpi="96" /><ellipse
       style="fill:#e8e8e8;stroke:#e8e8e8;stroke-width:4.99999;stroke-dasharray:none;stroke-opacity:1;fill-opacity:1"
       id="path2"
       cx="45.911709"
       cy="30.45446"
       rx="11.1329"
       ry="9.8447952" /></g></svg>
